<svg xmlns="http://www.w3.org/2000/svg" viewBox="0 0 1600 1120" width="1600" height="1120" role="img" aria-label="Схема подключения">
  <rect width="1600" height="1120" fill="#ffffff"/>
  <text x="40" y="32" fill="#111" font-family="Arial,sans-serif" font-size="24" font-weight="700">Полив · подключение</text>
  <text x="40" y="52" fill="#555" font-family="Arial,sans-serif" font-size="13">слева питание · центр Zero · справа датчик и реле · последний участок провода 30° к ряду гребёнки</text>

  <text x="40" y="80" fill="#111" font-family="Arial,sans-serif" font-size="16" font-weight="700">Питание</text>
  <rect x="30" y="90" width="360" height="130" rx="10" fill="#f8fafc" stroke="#0f172a" stroke-width="3"/>
  <rect x="48" y="108" width="64" height="80" rx="6" fill="#64748b"/>
  <rect x="122" y="108" width="64" height="80" rx="6" fill="#475569"/>
  <rect x="108" y="126" width="20" height="44" fill="#334155"/>
  <text x="200" y="132" fill="#111" font-family="Arial,sans-serif" font-size="15" font-weight="700">Трансформатор</text>
  <text x="200" y="154" fill="#334155" font-family="Arial,sans-serif" font-size="12">220 В → 24–25 В ~</text>
  <text x="200" y="176" fill="#6d28d9" font-family="Arial,sans-serif" font-size="12" font-weight="700">выход ~</text>

  <rect x="30" y="236" width="360" height="140" rx="10" fill="#fb923c" stroke="#9a3412" stroke-width="3"/>
  <rect x="48" y="252" width="110" height="56" rx="6" fill="#111"/>
  <text x="60" y="276" fill="#fdba74" font-family="Arial,sans-serif" font-size="12">LM2596HV</text>
  <text x="60" y="294" fill="#fff" font-family="Arial,sans-serif" font-size="11">AC/DC плата</text>
  <text x="48" y="330" fill="#fff" font-family="ui-monospace,Consolas,monospace" font-size="13">AC IN</text>
  <text x="200" y="330" fill="#fff" font-family="ui-monospace,Consolas,monospace" font-size="13">OUT+ 5V</text>
  <text x="200" y="352" fill="#fff" font-family="ui-monospace,Consolas,monospace" font-size="13">OUT− GND</text>
  <rect x="374" y="320" width="16" height="14" fill="#e2e8f0" stroke="#334155"/>
  <rect x="374" y="342" width="16" height="14" fill="#e2e8f0" stroke="#334155"/>

  <text x="40" y="400" fill="#111" font-family="Arial,sans-serif" font-size="14" font-weight="700">TP4056 · зарядка 1S</text>
  <g id="tp4056" transform="translate(30,410) scale(3.15) translate(-399.42052,-7.3609661)">

   <g transform="translate(-1.003e-6 .051568)"> <path transform="scale(.26458)" d="m49.645 0.75c-17.5 0-34.5-7.8053e-4 -34.5 16.699v232.8c0 6.3 6.3996 12.301 19.1 12.301h532.8c15.9 0 17-5.7008 17-18.301v-229.1c0.6-8.4-0.69999-14.4-17-14.4zm40.412 14.607a3.3146 3.3146 0 0 1 1.7363 0.46875 3.3146 3.3146 0 0 1 1.1543 4.5312 3.3146 3.3146 0 0 1-4.5254 1.1758 3.3146 3.3146 0 0 1-1.1992-4.5176l0.0332-0.05859a3.3146 3.3146 0 0 1 2.8008-1.5996zm22.014 0a3.3146 3.3146 0 0 1 1.7363 0.46875 3.3146 3.3146 0 0 1 1.1523 4.5312 3.3146 3.3146 0 0 1-4.5254 1.1758 3.3146 3.3146 0 0 1-1.1973-4.5176l0.0332-0.05859a3.3146 3.3146 0 0 1 2.8008-1.5996zm22.014 0a3.3146 3.3146 0 0 1 1.7363 0.46875 3.3146 3.3146 0 0 1 1.1524 4.5312 3.3146 3.3146 0 0 1-4.5254 1.1758 3.3146 3.3146 0 0 1-1.1992-4.5176l0.0351-0.05859a3.3146 3.3146 0 0 1 2.8008-1.5996zm22.012 0a3.3146 3.3146 0 0 1 1.7363 0.46875 3.3146 3.3146 0 0 1 1.1543 4.5312 3.3146 3.3146 0 0 1-4.5254 1.1758 3.3146 3.3146 0 0 1-1.1992-4.5176l0.0352-0.05859a3.3146 3.3146 0 0 1 2.7988-1.5996zm22.014 0a3.3146 3.3146 0 0 1 1.7363 0.46875 3.3146 3.3146 0 0 1 1.1543 4.5312 3.3146 3.3146 0 0 1-4.5254 1.1758 3.3146 3.3146 0 0 1-1.1992-4.5176l0.0332-0.05859a3.3146 3.3146 0 0 1 2.8008-1.5996zm22.014 0a3.3146 3.3146 0 0 1 1.7363 0.46875 3.3146 3.3146 0 0 1 1.1523 4.5312 3.3146 3.3146 0 0 1-4.5254 1.1758 3.3146 3.3146 0 0 1-1.1973-4.5176l0.0332-0.05859a3.3146 3.3146 0 0 1 2.8008-1.5996zm22.014 0a3.3146 3.3146 0 0 1 1.7363 0.46875 3.3146 3.3146 0 0 1 1.1523 4.5312 3.3146 3.3146 0 0 1-4.5254 1.1758 3.3146 3.3146 0 0 1-1.1992-4.5176l0.0352-0.05859a3.3146 3.3146 0 0 1 2.8008-1.5996zm22.012 0a3.3146 3.3146 0 0 1 1.7363 0.46875 3.3146 3.3146 0 0 1 1.1543 4.5312 3.3146 3.3146 0 0 1-4.5254 1.1758 3.3146 3.3146 0 0 1-1.1992-4.5176l0.0332-0.05859a3.3146 3.3146 0 0 1 2.8008-1.5996zm22.014 0a3.3146 3.3146 0 0 1 1.7363 0.46875 3.3146 3.3146 0 0 1 1.1523 4.5312 3.3146 3.3146 0 0 1-4.5254 1.1758 3.3146 3.3146 0 0 1-1.1973-4.5176l0.0332-0.05859a3.3146 3.3146 0 0 1 2.8008-1.5996zm22.014 0a3.3146 3.3146 0 0 1 1.7363 0.46875 3.3146 3.3146 0 0 1 1.1523 4.5312 3.3146 3.3146 0 0 1-4.5254 1.1758 3.3146 3.3146 0 0 1-1.1992-4.5176l0.0352-0.05859a3.3146 3.3146 0 0 1 2.8008-1.5996zm22.012 0a3.3146 3.3146 0 0 1 1.7383 0.46875 3.3146 3.3146 0 0 1 1.1523 4.5312 3.3146 3.3146 0 0 1-4.5254 1.1758 3.3146 3.3146 0 0 1-1.1992-4.5176l0.0351-0.05859a3.3146 3.3146 0 0 1 2.7988-1.5996zm22.014 0a3.3146 3.3146 0 0 1 1.7363 0.46875 3.3146 3.3146 0 0 1 1.1543 4.5312 3.3146 3.3146 0 0 1-4.5254 1.1758 3.3146 3.3146 0 0 1-1.1992-4.5176l0.0332-0.05859a3.3146 3.3146 0 0 1 2.8008-1.5996zm22.014 0a3.3146 3.3146 0 0 1 1.7363 0.46875 3.3146 3.3146 0 0 1 1.1524 4.5312 3.3146 3.3146 0 0 1-4.5254 1.1758 3.3146 3.3146 0 0 1-1.1973-4.5176l0.0332-0.05859a3.3146 3.3146 0 0 1 2.8008-1.5996zm22.014 0a3.3146 3.3146 0 0 1 1.7363 0.46875 3.3146 3.3146 0 0 1 1.1524 4.5312 3.3146 3.3146 0 0 1-4.5254 1.1758 3.3146 3.3146 0 0 1-1.1992-4.5176l0.0351-0.05859a3.3146 3.3146 0 0 1 2.8008-1.5996zm22.012 0a3.3146 3.3146 0 0 1 1.7363 0.46875 3.3146 3.3146 0 0 1 1.1543 4.5312 3.3146 3.3146 0 0 1-4.5254 1.1758 3.3146 3.3146 0 0 1-1.1992-4.5176l0.0352-0.05859a3.3146 3.3146 0 0 1 2.7988-1.5996zm22.014 0a3.3146 3.3146 0 0 1 1.7363 0.46875 3.3146 3.3146 0 0 1 1.1543 4.5312 3.3146 3.3146 0 0 1-4.5254 1.1758 3.3146 3.3146 0 0 1-1.1992-4.5176l0.0332-0.05859a3.3146 3.3146 0 0 1 2.8008-1.5996zm22.014 0a3.3146 3.3146 0 0 1 1.7363 0.46875 3.3146 3.3146 0 0 1 1.1523 4.5312 3.3146 3.3146 0 0 1-4.5254 1.1758 3.3146 3.3146 0 0 1-1.1973-4.5176l0.0332-0.05859a3.3146 3.3146 0 0 1 2.8008-1.5996zm22.014 0a3.3146 3.3146 0 0 1 1.7363 0.46875 3.3146 3.3146 0 0 1 1.1523 4.5312 3.3146 3.3146 0 0 1-4.5254 1.1758 3.3146 3.3146 0 0 1-1.1992-4.5176l0.0352-0.05859a3.3146 3.3146 0 0 1 2.8008-1.5996zm22.012 0a3.3146 3.3146 0 0 1 1.7363 0.46875 3.3146 3.3146 0 0 1 1.1543 4.5312 3.3146 3.3146 0 0 1-4.5254 1.1758 3.3146 3.3146 0 0 1-1.1992-4.5176l0.0332-0.05859a3.3146 3.3146 0 0 1 2.8008-1.5996zm22.014 0a3.3146 3.3146 0 0 1 1.7363 0.46875 3.3146 3.3146 0 0 1 1.1523 4.5312 3.3146 3.3146 0 0 1-4.5254 1.1758 3.3146 3.3146 0 0 1-1.1973-4.5195l0.0332-0.05664a3.3146 3.3146 0 0 1 2.8008-1.5996zm-461.86 4.293c6 0 11.1 4.8988 11.1 10.799 0 6.1-5.0996 11-11.1 11-5.9 0-11-4.9-11-11 0-5.9 5.1-10.799 11-10.799zm507.6 0.19922c5.9 0 10.799 5.1 10.799 11s-4.8989 10.6-10.799 10.6c-6.2 0-10.6-4.6996-10.6-10.6 0-5.9 4.3996-11 10.6-11zm-45.738 17.404a3.3146 3.3146 0 0 1 1.7363 0.4707 3.3146 3.3146 0 0 1 1.1523 4.5312 3.3146 3.3146 0 0 1-4.5254 1.1758 3.3146 3.3146 0 0 1-1.1973-4.5195l0.0332-0.05859a3.3146 3.3146 0 0 1 2.8008-1.5996zm-396.24 2e-3a3.3146 3.3146 0 0 1 1.7363 0.46875 3.3146 3.3146 0 0 1 1.1523 4.5312 3.3146 3.3146 0 0 1-4.5254 1.1758 3.3146 3.3146 0 0 1-1.1973-4.5195l0.0332-0.05859a3.3146 3.3146 0 0 1 2.8008-1.5977zm22.014 0a3.3146 3.3146 0 0 1 1.7363 0.46875 3.3146 3.3146 0 0 1 1.1524 4.5312 3.3146 3.3146 0 0 1-4.5254 1.1758 3.3146 3.3146 0 0 1-1.1992-4.5195l0.0351-0.05859a3.3146 3.3146 0 0 1 2.8008-1.5977zm22.012 0a3.3146 3.3146 0 0 1 1.7363 0.46875 3.3146 3.3146 0 0 1 1.1543 4.5312 3.3146 3.3146 0 0 1-4.5254 1.1758 3.3146 3.3146 0 0 1-1.1992-4.5195l0.0352-0.05859a3.3146 3.3146 0 0 1 2.7988-1.5977zm22.014 0a3.3146 3.3146 0 0 1 1.7363 0.46875 3.3146 3.3146 0 0 1 1.1543 4.5312 3.3146 3.3146 0 0 1-4.5254 1.1758 3.3146 3.3146 0 0 1-1.1992-4.5195l0.0332-0.05859a3.3146 3.3146 0 0 1 2.8008-1.5977zm22.014 0a3.3146 3.3146 0 0 1 1.7363 0.46875 3.3146 3.3146 0 0 1 1.1523 4.5312 3.3146 3.3146 0 0 1-4.5254 1.1758 3.3146 3.3146 0 0 1-1.1973-4.5195l0.0332-0.05859a3.3146 3.3146 0 0 1 2.8008-1.5977zm22.014 0a3.3146 3.3146 0 0 1 1.7363 0.46875 3.3146 3.3146 0 0 1 1.1523 4.5312 3.3146 3.3146 0 0 1-4.5254 1.1758 3.3146 3.3146 0 0 1-1.1992-4.5195l0.0352-0.05859a3.3146 3.3146 0 0 1 2.8008-1.5977zm22.012 0a3.3146 3.3146 0 0 1 1.7363 0.46875 3.3146 3.3146 0 0 1 1.1543 4.5312 3.3146 3.3146 0 0 1-4.5254 1.1758 3.3146 3.3146 0 0 1-1.1992-4.5195l0.0332-0.05859a3.3146 3.3146 0 0 1 2.8008-1.5977zm22.014 0a3.3146 3.3146 0 0 1 1.7363 0.46875 3.3146 3.3146 0 0 1 1.1523 4.5312 3.3146 3.3146 0 0 1-4.5254 1.1758 3.3146 3.3146 0 0 1-1.1973-4.5195l0.0332-0.05859a3.3146 3.3146 0 0 1 2.8008-1.5977zm22.014 0a3.3146 3.3146 0 0 1 1.7363 0.46875 3.3146 3.3146 0 0 1 1.1523 4.5312 3.3146 3.3146 0 0 1-4.5254 1.1758 3.3146 3.3146 0 0 1-1.1992-4.5195l0.0352-0.05859a3.3146 3.3146 0 0 1 2.8008-1.5977zm22.012 0a3.3146 3.3146 0 0 1 1.7383 0.46875 3.3146 3.3146 0 0 1 1.1523 4.5312 3.3146 3.3146 0 0 1-4.5254 1.1758 3.3146 3.3146 0 0 1-1.1992-4.5195l0.0351-0.05859a3.3146 3.3146 0 0 1 2.7988-1.5977zm22.014 0a3.3146 3.3146 0 0 1 1.7363 0.46875 3.3146 3.3146 0 0 1 1.1543 4.5312 3.3146 3.3146 0 0 1-4.5254 1.1758 3.3146 3.3146 0 0 1-1.1992-4.5195l0.0332-0.05859a3.3146 3.3146 0 0 1 2.8008-1.5977zm22.014 0a3.3146 3.3146 0 0 1 1.7363 0.46875 3.3146 3.3146 0 0 1 1.1524 4.5312 3.3146 3.3146 0 0 1-4.5254 1.1758 3.3146 3.3146 0 0 1-1.1973-4.5195l0.0332-0.05859a3.3146 3.3146 0 0 1 2.8008-1.5977zm22.014 0a3.3146 3.3146 0 0 1 1.7363 0.46875 3.3146 3.3146 0 0 1 1.1524 4.5312 3.3146 3.3146 0 0 1-4.5254 1.1758 3.3146 3.3146 0 0 1-1.1992-4.5195l0.0351-0.05859a3.3146 3.3146 0 0 1 2.8008-1.5977zm22.012 0a3.3146 3.3146 0 0 1 1.7363 0.46875 3.3146 3.3146 0 0 1 1.1543 4.5312 3.3146 3.3146 0 0 1-4.5254 1.1758 3.3146 3.3146 0 0 1-1.1992-4.5195l0.0352-0.05859a3.3146 3.3146 0 0 1 2.7988-1.5977zm22.014 0a3.3146 3.3146 0 0 1 1.7363 0.46875 3.3146 3.3146 0 0 1 1.1543 4.5312 3.3146 3.3146 0 0 1-4.5254 1.1758 3.3146 3.3146 0 0 1-1.1992-4.5195l0.0332-0.05859a3.3146 3.3146 0 0 1 2.8008-1.5977zm22.014 0a3.3146 3.3146 0 0 1 1.7363 0.46875 3.3146 3.3146 0 0 1 1.1523 4.5312 3.3146 3.3146 0 0 1-4.5254 1.1758 3.3146 3.3146 0 0 1-1.1973-4.5195l0.0332-0.05859a3.3146 3.3146 0 0 1 2.8008-1.5977zm22.014 0a3.3146 3.3146 0 0 1 1.7363 0.46875 3.3146 3.3146 0 0 1 1.1523 4.5312 3.3146 3.3146 0 0 1-4.5254 1.1758 3.3146 3.3146 0 0 1-1.1992-4.5195l0.0352-0.05859a3.3146 3.3146 0 0 1 2.8008-1.5977zm22.012 0a3.3146 3.3146 0 0 1 1.7363 0.46875 3.3146 3.3146 0 0 1 1.1543 4.5312 3.3146 3.3146 0 0 1-4.5254 1.1758 3.3146 3.3146 0 0 1-1.1992-4.5195l0.0332-0.05859a3.3146 3.3146 0 0 1 2.8008-1.5977zm-396.19 0.20698a3.2366 3.2366 0 0 1 1.6562 0.45898 3.2366 3.2366 0 0 1 1.125 4.4238 3.2366 3.2366 0 0 1-4.418 1.1484 3.2366 3.2366 0 0 1-1.1699-4.4121l0.0332-0.05664a3.2366 3.2366 0 0 1 2.7734-1.5625zm398.71 22.887a3.3146 3.3146 0 0 1 1.4805 0.33203 3.3146 3.3146 0 0 1 0.25586 0.13672 3.3146 3.3146 0 0 1 0.71289 0.57422 3.3146 3.3146 0 0 1 0.10156 0.11328 3.3146 3.3146 0 0 1 0.27539 0.36914 3.3146 3.3146 0 0 1 0.15234 0.26367 3.3146 3.3146 0 0 1 0 2e-3 3.3146 3.3146 0 0 1 0.12891 0.27734 3.3146 3.3146 0 0 1 0.10156 0.28906 3.3146 3.3146 0 0 1 0.10156 0.44727 3.3146 3.3146 0 0 1 0.0195 0.15039 3.3146 3.3146 0 0 1 0 2e-3 3.3146 3.3146 0 0 1 0.0137 0.15039 3.3146 3.3146 0 0 1 0 2e-3 3.3146 3.3146 0 0 1 6e-3 0.15039 3.3146 3.3146 0 0 1-2e-3 0.1543 3.3146 3.3146 0 0 1-8e-3 0.15234 3.3146 3.3146 0 0 1 0 2e-3 3.3146 3.3146 0 0 1-0.0156 0.15039 3.3146 3.3146 0 0 1-0.0215 0.15234 3.3146 3.3146 0 0 1-0.0293 0.14844 3.3146 3.3146 0 0 1-0.0371 0.15039 3.3146 3.3146 0 0 1-0.043 0.14648 3.3146 3.3146 0 0 1 0 2e-3 3.3146 3.3146 0 0 1-0.0488 0.14258 3.3146 3.3146 0 0 1 0 2e-3 3.3146 3.3146 0 0 1-0.0566 0.14062 3.3146 3.3146 0 0 1-0.13086 0.27734 3.3146 3.3146 0 0 1-0.0684 0.11914 3.3146 3.3146 0 0 1-0.57031 0.7168 3.3146 3.3146 0 0 1-0.48047 0.37891 3.3146 3.3146 0 0 1-0.13086 0.08008 3.3146 3.3146 0 0 1-0.41016 0.20312 3.3146 3.3146 0 0 1-0.28906 0.10352 3.3146 3.3146 0 0 1-0.29492 0.07617 3.3146 3.3146 0 0 1-0.30274 0.04883 3.3146 3.3146 0 0 1-0.15234 0.01367 3.3146 3.3146 0 0 1-0.61133-0.01563 3.3146 3.3146 0 0 1-0.15234-0.02148 3.3146 3.3146 0 0 1-0.44531-0.10547 3.3146 3.3146 0 0 1-0.14649-0.04883 3.3146 3.3146 0 0 1-0.28125-0.11719 3.3146 3.3146 0 0 1-2e-3 -2e-3 3.3146 3.3146 0 0 1-0.13477-0.06641 3.3146 3.3146 0 0 1-2e-3 -2e-3 3.3146 3.3146 0 0 1-0.11914-0.06641 3.3146 3.3146 0 0 1-0.49805-0.35547 3.3146 3.3146 0 0 1-0.11328-0.10352 3.3146 3.3146 0 0 1-0.10742-0.10742 3.3146 3.3146 0 0 1-0.10352-0.11328 3.3146 3.3146 0 0 1-0.0976-0.11719 3.3146 3.3146 0 0 1-0.0937-0.12305 3.3146 3.3146 0 0 1-0.0859-0.125 3.3146 3.3146 0 0 1-0.082-0.13086 3.3146 3.3146 0 0 1-0.0742-0.13086 3.3146 3.3146 0 0 1 0-2e-3 3.3146 3.3146 0 0 1-0.0684-0.13477 3.3146 3.3146 0 0 1 0-2e-3 3.3146 3.3146 0 0 1-0.0625-0.13867 3.3146 3.3146 0 0 1 0-2e-3 3.3146 3.3146 0 0 1-0.0566-0.14062 3.3146 3.3146 0 0 1 0-2e-3 3.3146 3.3146 0 0 1-0.0488-0.14258 3.3146 3.3146 0 0 1 0-2e-3 3.3146 3.3146 0 0 1-0.041-0.14648 3.3146 3.3146 0 0 1-0.0645-0.29883 3.3146 3.3146 0 0 1-0.0215-0.15234 3.3146 3.3146 0 0 1-0.0156-0.15234 3.3146 3.3146 0 0 1 0-0.45898 3.3146 3.3146 0 0 1 0.0137-0.15234 3.3146 3.3146 0 0 1 0.0195-0.15234 3.3146 3.3146 0 0 1 2e-3 -0.01172 3.3146 3.3146 0 0 1 4e-3 -0.01563 3.3146 3.3146 0 0 1 0.0293-0.15039 3.3146 3.3146 0 0 1 0.0274-0.12109 3.3146 3.3146 0 0 1 0.043-0.14648 3.3146 3.3146 0 0 1 0-2e-3 3.3146 3.3146 0 0 1 0.0469-0.14258 3.3146 3.3146 0 0 1 0-2e-3 3.3146 3.3146 0 0 1 0.0547-0.14258 3.3146 3.3146 0 0 1 0.0625-0.14062 3.3146 3.3146 0 0 1 0.0215-0.04492 3.3146 3.3146 0 0 1 0.0137-0.02734 3.3146 3.3146 0 0 1 0.0566-0.10938 3.3146 3.3146 0 0 1 0.041-0.07422l0.0352-0.05859a3.3146 3.3146 0 0 1 0.36328-0.49219 3.3146 3.3146 0 0 1 0.10547-0.11133 3.3146 3.3146 0 0 1 2.332-0.99609zm21.938 0.11328a3.2366 3.2366 0 0 1 2e-3 0 3.2366 3.2366 0 0 1 1.6562 0.45898 3.2366 3.2366 0 0 1 1.125 4.4238 3.2366 3.2366 0 0 1-4.418 1.1484 3.2366 3.2366 0 0 1-1.1719-4.4121l0.0332-0.05664a3.2366 3.2366 0 0 1 2.7734-1.5625zm-0.0195 22.766a3.3146 3.3146 0 0 1 1.7383 0.4707 3.3146 3.3146 0 0 1 1.1523 4.5312 3.3146 3.3146 0 0 1-4.5254 1.1758 3.3146 3.3146 0 0 1-1.1992-4.5195l0.0352-0.05859a3.3146 3.3146 0 0 1 2.7988-1.5996zm-21.879 0.03516a3.2366 3.2366 0 0 1 1.6562 0.45898 3.2366 3.2366 0 0 1 1.125 4.4238 3.2366 3.2366 0 0 1-4.418 1.1484 3.2366 3.2366 0 0 1-1.1699-4.4141l0.0332-0.05469a3.2366 3.2366 0 0 1 2.7734-1.5625zm-443.01 137.19c5.9 0 10.801 4.6016 10.801 10.602 0 6.1-4.9008 11-10.801 11-5.7 0-10.6-4.9-10.6-11 0-6 4.8996-10.602 10.6-10.602zm508.5 1.1016c6 0 10.602 5 10.602 11 0 5.9-4.6016 11-10.602 11-5.9 0-11-5.1-11-11 0-6 5.1-11 11-11z" fill="#37483e" fill-rule="evenodd" stroke="#1a1a1a" stroke-linejoin="round" stroke-width="1.8898"/> </g> <g transform="translate(-1.003e-6 .051568)" fill="#e3dedb"> <path transform="translate(-28.768 -12.237)" d="m168.85 28.971q0.16571 0 0.23691-0.06162 0.0726-0.06162 0.0726-0.20267 0-0.13967-0.0726-0.19995-0.0712-0.06025-0.23691-0.06025h-0.22185v0.52448zm-0.22185 0.36428v0.77372h-0.52723v-2.0445h0.80523q0.40399 0 0.59158 0.13557 0.18899 0.13557 0.18899 0.42862 0 0.20267-0.0986 0.33277-0.0972 0.1301-0.2944 0.19172 0.10816 0.02466 0.19307 0.11229 0.0863 0.08628 0.17393 0.26294l0.2862 0.58063h-0.56147l-0.24924-0.50805q-0.0753-0.15338-0.15335-0.20952-0.0767-0.05615-0.20542-0.05615z" fill-rule="evenodd"/> <path transform="translate(-28.768 -12.237)" d="m170.26 28.065h0.52723v1.2256q0 0.25334 0.0822 0.3629 0.0835 0.10819 0.27114 0.10819 0.18899 0 0.27115-0.10819 0.0835-0.10956 0.0835-0.3629v-1.2256h0.52723v1.2256q0 0.4341-0.21773 0.64638-0.21775 0.21225-0.66418 0.21225-0.44505 0-0.66281-0.21225-0.21772-0.21228-0.21772-0.64638z" fill-rule="evenodd"/> <path transform="translate(-28.768 -12.237)" d="m172.54 28.065h0.58886l0.74358 1.4023v-1.4023h0.49985v2.0445h-0.58885l-0.74361-1.4023v1.4023h-0.49983z" fill-rule="evenodd"/> <path transform="translate(-28.768 -12.237)" d="m72.691 31.567q-0.1972 0.09586-0.40946 0.14377-0.21226 0.04794-0.43822 0.04794-0.5108 0-0.80933-0.28485-0.29854-0.2862-0.29854-0.7751 0-0.49435 0.30401-0.77782 0.30401-0.28348 0.83261-0.28348 0.20404 0 0.39029 0.03834 0.18761 0.03836 0.35331 0.11366v0.42315q-0.17118-0.09721-0.34099-0.14515-0.16844-0.04792-0.33825-0.04792-0.31497 0-0.48614 0.17664-0.16981 0.17529-0.16981 0.50258 0 0.32456 0.16433 0.50123 0.16433 0.17666 0.46698 0.17666 0.08216 0 0.152-0.0096 0.07121-0.01095 0.12736-0.03286v-0.39714h-0.32182v-0.3533h0.82166z" fill-rule="evenodd"/> <path transform="translate(-28.768 -12.237)" d="m73.153 29.675h0.87506q0.39029 0 0.59844 0.17391 0.20952 0.17254 0.20952 0.493 0 0.32181-0.20952 0.49572-0.20815 0.17253-0.59844 0.17253h-0.34783v0.70938h-0.52723zm0.52723 0.38206v0.57105h0.29169q0.15337 0 0.23691-0.07395 0.08353-0.07533 0.08353-0.21225 0-0.13695-0.08353-0.2109-0.08354-0.07395-0.23691-0.07395z" fill-rule="evenodd"/> <path transform="translate(-28.768 -12.237)" d="m75.208 29.675h0.52723v2.0445h-0.52723z" fill-rule="evenodd"/> <path transform="translate(-28.768 -12.237)" d="m77.188 30.02q-0.24102 0-0.37385 0.17801-0.13283 0.17804-0.13283 0.5012 0 0.32184 0.13283 0.49985 0.13283 0.17804 0.37385 0.17804 0.24239 0 0.37522-0.17804 0.13284-0.17801 0.13284-0.49985 0-0.32316-0.13284-0.5012-0.13283-0.17801-0.37522-0.17801zm0-0.38208q0.49299 0 0.77236 0.2821 0.27936 0.2821 0.27936 0.7792 0 0.49575-0.27936 0.77785t-0.77236 0.2821q-0.49162 0-0.77236-0.2821-0.27936-0.2821-0.27936-0.77785 0-0.4971 0.27936-0.7792 0.28073-0.2821 0.77236-0.2821z" fill-rule="evenodd"/> <path transform="translate(-28.768 -12.237)" d="m63.751 39.495h0.67102l0.46561 1.0942 0.46834-1.0942h0.66965v2.0445h-0.49847v-1.4954l-0.47108 1.1024h-0.33414l-0.47108-1.1024v1.4954h-0.49984z" fill-rule="evenodd"/> <path transform="translate(-28.768 -12.237)" d="m66.544 39.495h0.52723v2.0445h-0.52723z" fill-rule="evenodd"/> <path transform="translate(-28.768 -12.237)" d="m69.212 41.427q-0.14516 0.07533-0.30264 0.11366-0.15748 0.03834-0.32866 0.03834-0.5108 0-0.80933-0.28485-0.29854-0.2862-0.29854-0.7751 0-0.49025 0.29854-0.77507 0.29853-0.28623 0.80933-0.28623 0.17118 0 0.32866 0.03834 0.15749 0.03836 0.30264 0.11366v0.42315q-0.14653-0.09996-0.28895-0.14653-0.14242-0.04654-0.2999-0.04654-0.2821 0-0.4437 0.18076-0.16159 0.18076-0.16159 0.49845 0 0.31634 0.16159 0.49712 0.16159 0.18076 0.4437 0.18076 0.15748 0 0.2999-0.04657t0.28895-0.14653z" fill-rule="evenodd"/> <path transform="translate(-28.768 -12.237)" d="m70.399 40.401q0.1657 0 0.23691-0.06162 0.07258-0.06162 0.07258-0.20267 0-0.13967-0.07258-0.19994-0.07121-0.06025-0.23691-0.06025h-0.22184v0.52448zm-0.22184 0.36428v0.77372h-0.52723v-2.0445h0.80522q0.40398 0 0.59159 0.13557 0.18898 0.13557 0.18898 0.42862 0 0.20267-0.0986 0.33277-0.09723 0.1301-0.29442 0.19172 0.10818 0.02466 0.19309 0.11229 0.08628 0.08628 0.17392 0.26294l0.28621 0.58063h-0.56146l-0.24924-0.50805q-0.07532-0.15338-0.15337-0.20952-0.07669-0.05614-0.20542-0.05614z" fill-rule="evenodd"/> <path transform="translate(-28.768 -12.237)" d="m72.742 39.84q-0.24102 0-0.37385 0.17801-0.13283 0.17804-0.13283 0.5012 0 0.32184 0.13283 0.49985 0.13283 0.17804 0.37385 0.17804 0.24239 0 0.37522-0.17804 0.13283-0.17801 0.13283-0.49985 0-0.32316-0.13283-0.5012-0.13283-0.17801-0.37522-0.17801zm0-0.38208q0.49299 0 0.77236 0.2821 0.27936 0.2821 0.27936 0.7792 0 0.49575-0.27936 0.77785t-0.77236 0.2821q-0.49162 0-0.77236-0.2821-0.27936-0.2821-0.27936-0.77785 0-0.4971 0.27936-0.7792 0.28073-0.2821 0.77236-0.2821z" fill-rule="evenodd"/> <path transform="translate(-28.768 -12.237)" d="m65.173 42.919v0.43275q-0.16844-0.07533-0.32866-0.11366-0.16022-0.03834-0.30264-0.03834-0.18898 0-0.27936 0.05202-0.09038 0.05204-0.09038 0.16161 0 0.08215 0.06025 0.12872 0.06162 0.04519 0.22185 0.07805l0.22459 0.04519q0.34099 0.06847 0.48478 0.20815 0.14379 0.1397 0.14379 0.39714 0 0.33824-0.20131 0.50395-0.19994 0.16433-0.61213 0.16433-0.19446 0-0.39029-0.03696-0.19583-0.03699-0.39166-0.10956v-0.44506q0.19583 0.10406 0.37796 0.15748 0.1835 0.05204 0.35331 0.05204 0.17255 0 0.2643-0.05752t0.09175-0.16433q0-0.09586-0.063-0.1479-0.06162-0.05204-0.24787-0.09313l-0.20404-0.04519q-0.30675-0.06572-0.44917-0.20952-0.14105-0.14378-0.14105-0.38754 0-0.30538 0.1972-0.46971t0.56694-0.16433q0.16844 0 0.34646 0.02603 0.17802 0.02463 0.36837 0.0753z" fill-rule="evenodd"/> <path transform="translate(-28.768 -12.237)" d="m66.299 43.253v1.2475h0.18898q0.32319 0 0.49299-0.1602 0.17118-0.16023 0.17118-0.46561 0-0.30401-0.16981-0.46286-0.16981-0.15886-0.49436-0.15886zm-0.52723-0.39849h0.55599q0.4656 0 0.69293 0.0671 0.2287 0.06572 0.39166 0.22458 0.14379 0.13832 0.21363 0.31909 0.06984 0.18076 0.06984 0.40944 0 0.23143-0.06984 0.41357-0.06984 0.18076-0.21363 0.31909-0.16433 0.15883-0.3944 0.22595-0.23006 0.06572-0.69019 0.06572h-0.55599z" fill-rule="evenodd"/> <path transform="translate(-28.768 -12.237)" d="m70.696 44.787q-0.14516 0.07533-0.30264 0.11366-0.15748 0.03834-0.32866 0.03834-0.51079 0-0.80933-0.28485-0.29854-0.2862-0.29854-0.7751 0-0.49025 0.29854-0.77507 0.29853-0.28623 0.80933-0.28623 0.17118 0 0.32866 0.03834 0.15748 0.03836 0.30264 0.11366v0.42315q-0.14653-0.09996-0.28895-0.14653-0.14242-0.04654-0.2999-0.04654-0.2821 0-0.44369 0.18076t-0.16159 0.49845q0 0.31634 0.16159 0.49712 0.16159 0.18076 0.44369 0.18076 0.15748 0 0.2999-0.04657t0.28895-0.14653z" fill-rule="evenodd"/> <path transform="translate(-28.768 -12.237)" d="m72.375 44.527h-0.82439l-0.1301 0.37248h-0.52997l0.75729-2.0445h0.62856l0.75729 2.0445h-0.52997zm-0.69293-0.37933h0.5601l-0.27936-0.81344z" fill-rule="evenodd"/> <path transform="translate(-28.768 -12.237)" d="m74.053 43.761q0.1657 0 0.23691-0.06162 0.07258-0.06162 0.07258-0.20267 0-0.13967-0.07258-0.19994-0.07121-0.06025-0.23691-0.06025h-0.22185v0.52448zm-0.22185 0.36428v0.77372h-0.52723v-2.0445h0.80522q0.40398 0 0.59159 0.13557 0.18898 0.13557 0.18898 0.42862 0 0.20267-0.0986 0.33277-0.09723 0.1301-0.29443 0.19172 0.10818 0.02466 0.19309 0.11229 0.08627 0.08628 0.17392 0.26294l0.28621 0.58063h-0.56146l-0.24924-0.50805q-0.07532-0.15338-0.15338-0.20952-0.07669-0.05614-0.20541-0.05614z" fill-rule="evenodd"/> <path transform="translate(-28.768 -12.237)" d="m75.989 43.253v1.2475h0.18898q0.32319 0 0.49299-0.1602 0.17118-0.16023 0.17118-0.46561 0-0.30401-0.16981-0.46286-0.16981-0.15886-0.49436-0.15886zm-0.52723-0.39849h0.55599q0.4656 0 0.69293 0.0671 0.2287 0.06572 0.39166 0.22458 0.14379 0.13832 0.21363 0.31909 0.06984 0.18076 0.06984 0.40944 0 0.23143-0.06984 0.41357-0.06984 0.18076-0.21363 0.31909-0.16433 0.15883-0.39439 0.22595-0.23006 0.06572-0.69019 0.06572h-0.55599z" fill-rule="evenodd"/> <path transform="translate(-28.768 -12.237)" d="m143.79 80.334v-0.87508q0-0.39028 0.17391-0.59843 0.17254-0.20953 0.493-0.20953 0.32181 0 0.49572 0.20953 0.17254 0.20815 0.17254 0.59843v0.34785h0.70937v0.52723zm0.38206-0.52723h0.57105v-0.2917q0-0.15338-0.0739-0.23691-0.0753-0.0835-0.21225-0.0835t-0.2109 0.0835q-0.074 0.0835-0.074 0.23691z" fill-rule="evenodd"/> <path transform="translate(-28.768 -12.237)" d="m143.79 78.454v-0.50533l1.4858-0.3533-1.4858-0.35057v-0.50805l1.4858-0.35057-1.4858-0.35333v-0.5012l2.0445 0.48205v0.60801l-1.5543 0.3711 1.5543 0.36703v0.60801z" fill-rule="evenodd"/> <path transform="translate(-28.768 -12.237)" d="m144.69 74.436q0-0.16571-0.0616-0.23691-0.0616-0.0726-0.20267-0.0726-0.13967 0-0.19994 0.0726-0.0603 0.0712-0.0603 0.23691v0.22182h0.52448zm0.36428 0.22182h0.77372v0.52724h-2.0445v-0.80521q0-0.40399 0.13557-0.59161 0.13558-0.18896 0.42863-0.18896 0.20267 0 0.33277 0.0986 0.13009 0.0972 0.19171 0.29443 0.0247-0.10819 0.11229-0.19309 0.0863-0.0863 0.26294-0.17391l0.58063-0.2862v0.56144l-0.50805 0.24924q-0.15338 0.0753-0.20952 0.15338-0.0562 0.0767-0.0562 0.20542z" fill-rule="evenodd"/> <path transform="translate(-28.768 -12.237)" d="m143.79 72.052v-0.52721h2.0445v0.52721z" fill-rule="evenodd"/> <path transform="translate(-28.768 -12.237)" d="m143.79 71.006v-0.58886l1.4023-0.74358h-1.4023v-0.49985h2.0445v0.58885l-1.4023 0.74361h1.4023v0.49983z" fill-rule="evenodd"/> <path transform="translate(-28.768 -12.237)" d="m155.58 38.648h1.8843v0.39849h-0.67786v1.6461h-0.52724v-1.6461h-0.67921z" fill-rule="evenodd"/> <path transform="translate(-28.768 -12.237)" d="m157.49 38.648h0.52999l0.54229 1.5091 0.54092-1.5091h0.52995l-0.75728 2.0445h-0.62855z" fill-rule="evenodd"/> <path transform="translate(-28.768 -12.237)" d="m114.68 80.334v-0.52722h1.2256q0.25334 0 0.3629-0.0822 0.10819-0.0835 0.10819-0.27114 0-0.18899-0.10819-0.27115-0.10956-0.0835-0.3629-0.0835h-1.2256v-0.52723h1.2256q0.4341 0 0.64638 0.21774 0.21225 0.21774 0.21225 0.66418 0 0.44506-0.21225 0.6628-0.21228 0.21773-0.64638 0.21773z" fill-rule="evenodd"/> <path transform="translate(-28.768 -12.237)" d="m114.75 76.633h0.43275q-0.0753 0.16844-0.11366 0.32866-0.0383 0.16022-0.0383 0.30264 0 0.18898 0.052 0.27937 0.052 0.0904 0.1616 0.0904 0.0821 0 0.12872-0.0603 0.0452-0.0616 0.078-0.22184l0.0452-0.22459q0.0685-0.34099 0.20815-0.48477 0.1397-0.14379 0.39714-0.14379 0.33824 0 0.50395 0.2013 0.16433 0.19994 0.16433 0.61213 0 0.19446-0.0369 0.39029-0.037 0.19583-0.10957 0.39165h-0.44505q0.10406-0.19582 0.15747-0.37796 0.0521-0.1835 0.0521-0.35331 0-0.17254-0.0575-0.2643-0.0575-0.0917-0.16434-0.0917-0.0959 0-0.1479 0.063-0.052 0.0616-0.0931 0.24786l-0.0452 0.20405q-0.0657 0.30675-0.20952 0.44917-0.14378 0.14105-0.38754 0.14105-0.30538 0-0.46971-0.1972-0.16434-0.19719-0.16434-0.56694 0-0.16844 0.026-0.34647 0.0246-0.17802 0.0753-0.36837z" fill-rule="evenodd"/> <path transform="translate(-28.768 -12.237)" d="m115.47 75.215q0-0.12461-0.0548-0.18898-0.0548-0.0644-0.16158-0.0644-0.10544 0-0.16023 0.0644-0.0561 0.0644-0.0561 0.18898v0.29169h0.43275zm0.89421-0.0178q0-0.15885-0.0671-0.23828-0.0671-0.0808-0.20267-0.0808-0.13282 0-0.19857 0.0794-0.0671 0.0794-0.0671 0.23965v0.30949h0.53544zm-0.73536-0.49025q0.0493-0.16981 0.18212-0.26293 0.13285-0.0931 0.32594-0.0931 0.29578 0 0.44095 0.19993 0.14515 0.19994 0.14515 0.60803v0.87506h-2.0445v-0.79153q0-0.42589 0.12872-0.61624 0.12872-0.19172 0.4122-0.19172 0.14927 0 0.25471 0.0698 0.10406 0.0698 0.15476 0.20268z" fill-rule="evenodd"/> <path transform="translate(-28.768 -12.237)" d="m162.1 66.854h-0.82438l-0.13009 0.37248h-0.52996l0.75729-2.0445h0.62854l0.75732 2.0445h-0.52999zm-0.69291-0.37934h0.5601l-0.27937-0.81343z" fill-rule="evenodd"/> <path transform="translate(-28.768 -12.237)" d="m164.65 67.115q-0.14515 0.0753-0.30262 0.11366-0.15752 0.0383-0.32867 0.0383-0.5108 0-0.80934-0.28485-0.29852-0.2862-0.29852-0.77509 0-0.49025 0.29852-0.77508 0.29854-0.28622 0.80934-0.28622 0.17116 0 0.32867 0.0383 0.15748 0.0384 0.30263 0.11366v0.42315q-0.14653-0.1-0.28895-0.14653-0.14243-0.0465-0.29991-0.0465-0.2821 0-0.44368 0.18077-0.1616 0.18076-0.1616 0.49845 0 0.31633 0.1616 0.49712 0.16158 0.18076 0.44368 0.18076 0.15748 0 0.29991-0.0466 0.14242-0.0466 0.28895-0.14653z" fill-rule="evenodd"/> <path transform="translate(-28.768 -12.237)" d="m164.85 65.182h1.8843v0.39849h-0.67785v1.646h-0.52721v-1.646h-0.67924z" fill-rule="evenodd"/> <text transform="rotate(-90 -20.502 8.2656)" x="-53.776913" y="176.77707" font-family="Arial" font-size="2.8222px" font-weight="bold" letter-spacing="0px" stroke-width=".26458px" word-spacing="0px" style="font-variant-caps:normal;font-variant-east-asian:normal;font-variant-ligatures:normal;font-variant-numeric:normal;line-height:125%"><tspan x="-53.776913" y="176.77707" fill="#e3dedb" font-family="Arial" font-size="2.8222px" font-weight="bold" stroke-width=".26458px" style="font-variant-caps:normal;font-variant-east-asian:normal;font-variant-ligatures:normal;font-variant-numeric:normal">CAMERA</tspan></text> <path transform="translate(-28.768 -12.237)" d="m75.188 72.31h0.84667v1.4552h3.2544v-1.4552h0.9525v3.5454h-0.9525v-1.6933h-3.2544v1.6933h-0.84667z" fill-rule="evenodd"/> <path transform="translate(-28.768 -12.237)" d="m82.12 72.707v2.7517h1.0848c0.97896 0 1.5875-0.10583 2.0373-0.34396 0.39688-0.21166 0.635-0.55562 0.635-1.0054 0-0.50271-0.23812-0.84667-0.635-1.0583-0.44979-0.23812-1.0583-0.34395-2.0373-0.34395zm-0.84667-0.39688h1.8256c1.2435 0 2.2225 0.18521 2.7781 0.44979 0.635 0.29104 0.9525 0.74084 0.9525 1.3494s-0.3175 1.0583-0.9525 1.3494c-0.55562 0.26459-1.5346 0.39688-2.7781 0.39688h-1.8256z" fill-rule="evenodd"/> <path transform="translate(-28.768 -12.237)" d="m87.517 72.31h1.3494l1.6669 2.4077 1.6933-2.4077h1.3229v3.5454h-0.87312v-3.0956l-1.6933 2.4077h-0.89958l-1.6669-2.4077v3.0956h-0.89958z" fill-rule="evenodd"/> <path transform="translate(-28.768 -12.237)" d="m94.529 72.31h0.89958v3.5454h-0.89958z" fill-rule="evenodd"/> </g> <g transform="translate(-1.003e-6 .051568)"> <path transform="translate(-28.768 -12.237)" d="m172.31 65.209v1.9579h-5.0271v-1.9579z" fill="#536c5d" fill-rule="evenodd"/> <path transform="translate(-28.768 -12.237)" d="m169.85 67.114c-0.3175 0-0.60854-0.10583-0.89958-0.21166-0.26458-0.0529-0.55563-0.18521-0.66146-0.29104-0.15875-0.0529-0.29104-0.26459-0.29104-0.34396 0-0.21167 0.13229-0.26459 0.29104-0.50271 0.10583-0.0529 0.39688-0.15875 0.66146-0.26458 0.29104 0 0.58208-0.0529 0.89958-0.0529 0.29104 0 0.55563 0.0529 0.84667 0.0529 0.29104 0.10583 0.55562 0.21166 0.79375 0.26458 0.0529 0.23812 0.15875 0.29104 0.15875 0.50271 0 0.0794-0.10583 0.29104-0.15875 0.34396-0.23813 0.10583-0.50271 0.29104-0.79375 0.29104-0.29104 0.10583-0.55563 0.21166-0.84667 0.21166z" fill="#6f917c" fill-rule="evenodd"/> <path transform="translate(-28.768 -12.237)" d="m169.8 66.611c-0.10584 0-0.26459 0-0.39688-0.0529-0.15875 0-0.26458 0-0.37042-0.10583-0.0794-0.10584-0.1852-0.10584-0.1852-0.18521 0-0.10584 0.10583-0.21167 0.1852-0.21167 0.10584-0.0529 0.21167-0.15875 0.37042-0.15875 0.13229 0 0.29104-0.13229 0.39688-0.13229 0.15875 0 0.34395 0.13229 0.44979 0.13229 0.15875 0 0.29104 0.10583 0.39687 0.15875 0.0529 0 0.0529 0.10583 0.0529 0.21167 0 0.0794 0 0.0794-0.0529 0.18521-0.10583 0.10583-0.23812 0.10583-0.39687 0.10583-0.10584 0.0529-0.29104 0.0529-0.44979 0.0529z" fill="#b7c8be" fill-rule="evenodd"/> <path transform="translate(-28.768 -12.237)" d="m167.29 66.267v-1.0583h5.0271v1.9579h-5.0271z" fill="none" stroke="#1a1a1a" stroke-linejoin="round" stroke-width=".5"/> <path transform="scale(.26458)" d="m86.045 36.75v7.9004h8.0996v-7.9004zm4.0547 0.71289a3.2366 3.2366 0 0 1 1.6562 0.45898 3.2366 3.2366 0 0 1 1.125 4.4238 3.2366 3.2366 0 0 1-4.418 1.1484 3.2366 3.2366 0 0 1-1.1699-4.4121l0.0332-0.05664a3.2366 3.2366 0 0 1 2.7734-1.5625z" fill="#e3dedb" fill-rule="evenodd"/> <path transform="translate(-28.768 -12.237)" d="m52.589 16.125a1.0597 1.0597 0 0 0-1.0428 1.0594 1.0597 1.0597 0 0 0 1.0599 1.0599 1.0597 1.0597 0 0 0 1.0599-1.0599 1.0597 1.0597 0 0 0-1.0599-1.0594 1.0597 1.0597 0 0 0-0.01705 0zm0.01602 0.19947a0.86027 0.86027 0 0 1 0.44235 0.12144 0.86027 0.86027 0 0 1 0.29921 1.1762 0.86027 0.86027 0 0 1-1.1746 0.30541 0.86027 0.86027 0 0 1-0.31109-1.1731l0.0088-0.01499a0.86027 0.86027 0 0 1 0.73536-0.41496z" fill="#e3dedb" style="paint-order:stroke markers fill"/> <path transform="translate(-28.768 -12.237)" d="m163.25 16.125a1.0597 1.0597 0 0 0-1.0428 1.0594 1.0597 1.0597 0 0 0 1.0599 1.0599 1.0597 1.0597 0 0 0 1.0599-1.0599 1.0597 1.0597 0 0 0-1.0599-1.0594 1.0597 1.0597 0 0 0-0.017 0zm0.016 0.19947a0.86027 0.86027 0 0 1 0.44235 0.12144 0.86027 0.86027 0 0 1 0.29921 1.1762 0.86027 0.86027 0 0 1-1.1746 0.30541 0.86027 0.86027 0 0 1-0.31109-1.1731l9e-3 -0.01499a0.86027 0.86027 0 0 1 0.73536-0.41496z" fill="#e3dedb" style="paint-order:stroke markers fill"/> <path transform="translate(-28.768 -12.237)" d="m157.43 16.125a1.0597 1.0597 0 0 0-1.0428 1.0594 1.0597 1.0597 0 0 0 1.0599 1.0599 1.0597 1.0597 0 0 0 1.0599-1.0599 1.0597 1.0597 0 0 0-1.0599-1.0594 1.0597 1.0597 0 0 0-0.0171 0zm0.016 0.19947a0.86027 0.86027 0 0 1 0.44235 0.12144 0.86027 0.86027 0 0 1 0.29921 1.1762 0.86027 0.86027 0 0 1-1.1746 0.30541 0.86027 0.86027 0 0 1-0.31109-1.1731l9e-3 -0.01499a0.86027 0.86027 0 0 1 0.73536-0.41496z" fill="#e3dedb" style="paint-order:stroke markers fill"/> <path transform="translate(-28.768 -12.237)" d="m151.6 16.125a1.0597 1.0597 0 0 0-1.0428 1.0594 1.0597 1.0597 0 0 0 1.0599 1.0599 1.0597 1.0597 0 0 0 1.0599-1.0599 1.0597 1.0597 0 0 0-1.0599-1.0594 1.0597 1.0597 0 0 0-0.0171 0zm0.016 0.19947a0.86027 0.86027 0 0 1 0.44235 0.12144 0.86027 0.86027 0 0 1 0.29921 1.1762 0.86027 0.86027 0 0 1-1.1746 0.30541 0.86027 0.86027 0 0 1-0.31109-1.1731l9e-3 -0.01499a0.86027 0.86027 0 0 1 0.73536-0.41496z" fill="#e3dedb" style="paint-order:stroke markers fill"/> <path transform="translate(-28.768 -12.237)" d="m134.13 16.125a1.0597 1.0597 0 0 0-1.0428 1.0594 1.0597 1.0597 0 0 0 1.0599 1.0599 1.0597 1.0597 0 0 0 1.0599-1.0599 1.0597 1.0597 0 0 0-1.0599-1.0594 1.0597 1.0597 0 0 0-0.0171 0zm0.016 0.19947a0.86027 0.86027 0 0 1 0.44235 0.12144 0.86027 0.86027 0 0 1 0.29921 1.1762 0.86027 0.86027 0 0 1-1.1746 0.30541 0.86027 0.86027 0 0 1-0.31109-1.1731l9e-3 -0.01499a0.86027 0.86027 0 0 1 0.73536-0.41496z" fill="#e3dedb" style="paint-order:stroke markers fill"/> <path transform="translate(-28.768 -12.237)" d="m139.95 16.125a1.0597 1.0597 0 0 0-1.0428 1.0594 1.0597 1.0597 0 0 0 1.0599 1.0599 1.0597 1.0597 0 0 0 1.0599-1.0599 1.0597 1.0597 0 0 0-1.0599-1.0594 1.0597 1.0597 0 0 0-0.0171 0zm0.016 0.19947a0.86027 0.86027 0 0 1 0.44235 0.12144 0.86027 0.86027 0 0 1 0.29921 1.1762 0.86027 0.86027 0 0 1-1.1746 0.30541 0.86027 0.86027 0 0 1-0.31109-1.1731l9e-3 -0.01499a0.86027 0.86027 0 0 1 0.73536-0.41496z" fill="#e3dedb" style="paint-order:stroke markers fill"/> <path transform="translate(-28.768 -12.237)" d="m128.3 16.125a1.0597 1.0597 0 0 0-1.0428 1.0594 1.0597 1.0597 0 0 0 1.0599 1.0599 1.0597 1.0597 0 0 0 1.0599-1.0599 1.0597 1.0597 0 0 0-1.0599-1.0594 1.0597 1.0597 0 0 0-0.017 0zm0.016 0.19947a0.86027 0.86027 0 0 1 0.44235 0.12144 0.86027 0.86027 0 0 1 0.29921 1.1762 0.86027 0.86027 0 0 1-1.1746 0.30541 0.86027 0.86027 0 0 1-0.31109-1.1731l9e-3 -0.01499a0.86027 0.86027 0 0 1 0.73536-0.41496z" fill="#e3dedb" style="paint-order:stroke markers fill"/> <path transform="translate(-28.768 -12.237)" d="m122.48 16.125a1.0597 1.0597 0 0 0-1.0428 1.0594 1.0597 1.0597 0 0 0 1.0599 1.0599 1.0597 1.0597 0 0 0 1.0599-1.0599 1.0597 1.0597 0 0 0-1.0599-1.0594 1.0597 1.0597 0 0 0-0.0171 0zm0.016 0.19947a0.86027 0.86027 0 0 1 0.44235 0.12144 0.86027 0.86027 0 0 1 0.29921 1.1762 0.86027 0.86027 0 0 1-1.1746 0.30541 0.86027 0.86027 0 0 1-0.31109-1.1731l9e-3 -0.01499a0.86027 0.86027 0 0 1 0.73535-0.41496z" fill="#e3dedb" style="paint-order:stroke markers fill"/> <path transform="translate(-28.768 -12.237)" d="m116.66 16.125a1.0597 1.0597 0 0 0-1.0428 1.0594 1.0597 1.0597 0 0 0 1.0599 1.0599 1.0597 1.0597 0 0 0 1.0599-1.0599 1.0597 1.0597 0 0 0-1.0599-1.0594 1.0597 1.0597 0 0 0-0.0171 0zm0.016 0.19947a0.86027 0.86027 0 0 1 0.44235 0.12144 0.86027 0.86027 0 0 1 0.2992 1.1762 0.86027 0.86027 0 0 1-1.1746 0.30541 0.86027 0.86027 0 0 1-0.3111-1.1731l9e-3 -0.01499a0.86027 0.86027 0 0 1 0.73535-0.41496z" fill="#e3dedb" style="paint-order:stroke markers fill"/> <path transform="translate(-28.768 -12.237)" d="m110.83 16.125a1.0597 1.0597 0 0 0-1.0428 1.0594 1.0597 1.0597 0 0 0 1.0599 1.0599 1.0597 1.0597 0 0 0 1.0599-1.0599 1.0597 1.0597 0 0 0-1.0599-1.0594 1.0597 1.0597 0 0 0-0.017 0zm0.016 0.19947a0.86027 0.86027 0 0 1 0.44235 0.12144 0.86027 0.86027 0 0 1 0.2992 1.1762 0.86027 0.86027 0 0 1-1.1746 0.30541 0.86027 0.86027 0 0 1-0.31109-1.1731l9e-3 -0.01499a0.86027 0.86027 0 0 1 0.73536-0.41496z" fill="#e3dedb" style="paint-order:stroke markers fill"/> <path transform="translate(-28.768 -12.237)" d="m99.183 16.125a1.0597 1.0597 0 0 0-1.0428 1.0594 1.0597 1.0597 0 0 0 1.0599 1.0599 1.0597 1.0597 0 0 0 1.0599-1.0599 1.0597 1.0597 0 0 0-1.0599-1.0594 1.0597 1.0597 0 0 0-0.01705 0zm0.01602 0.19947a0.86027 0.86027 0 0 1 0.44235 0.12144 0.86027 0.86027 0 0 1 0.29921 1.1762 0.86027 0.86027 0 0 1-1.1746 0.30541 0.86027 0.86027 0 0 1-0.31109-1.1731l0.0088-0.01499a0.86027 0.86027 0 0 1 0.73536-0.41496z" fill="#e3dedb" style="paint-order:stroke markers fill"/> <path transform="translate(-28.768 -12.237)" d="m93.359 16.125a1.0597 1.0597 0 0 0-1.0428 1.0594 1.0597 1.0597 0 0 0 1.0599 1.0599 1.0597 1.0597 0 0 0 1.0599-1.0599 1.0597 1.0597 0 0 0-1.0599-1.0594 1.0597 1.0597 0 0 0-0.01705 0zm0.01602 0.19947a0.86027 0.86027 0 0 1 0.44235 0.12144 0.86027 0.86027 0 0 1 0.29921 1.1762 0.86027 0.86027 0 0 1-1.1746 0.30541 0.86027 0.86027 0 0 1-0.31109-1.1731l0.0088-0.01499a0.86027 0.86027 0 0 1 0.73536-0.41496z" fill="#e3dedb" style="paint-order:stroke markers fill"/> <path transform="translate(-28.768 -12.237)" d="m87.534 16.125a1.0597 1.0597 0 0 0-1.0428 1.0594 1.0597 1.0597 0 0 0 1.0599 1.0599 1.0597 1.0597 0 0 0 1.0599-1.0599 1.0597 1.0597 0 0 0-1.0599-1.0594 1.0597 1.0597 0 0 0-0.01705 0zm0.01602 0.19947a0.86027 0.86027 0 0 1 0.44235 0.12144 0.86027 0.86027 0 0 1 0.29921 1.1762 0.86027 0.86027 0 0 1-1.1746 0.30541 0.86027 0.86027 0 0 1-0.31109-1.1731l0.0088-0.01499a0.86027 0.86027 0 0 1 0.73536-0.41496z" fill="#e3dedb" style="paint-order:stroke markers fill"/> <path transform="translate(-28.768 -12.237)" d="m81.71 16.125a1.0597 1.0597 0 0 0-1.0428 1.0594 1.0597 1.0597 0 0 0 1.0599 1.0599 1.0597 1.0597 0 0 0 1.0599-1.0599 1.0597 1.0597 0 0 0-1.0599-1.0594 1.0597 1.0597 0 0 0-0.01705 0zm0.01602 0.19947a0.86027 0.86027 0 0 1 0.44235 0.12144 0.86027 0.86027 0 0 1 0.29921 1.1762 0.86027 0.86027 0 0 1-1.1746 0.30541 0.86027 0.86027 0 0 1-0.31109-1.1731l0.0088-0.01499a0.86027 0.86027 0 0 1 0.73536-0.41496z" fill="#e3dedb" style="paint-order:stroke markers fill"/> <path transform="translate(-28.768 -12.237)" d="m75.886 16.125a1.0597 1.0597 0 0 0-1.0428 1.0594 1.0597 1.0597 0 0 0 1.0599 1.0599 1.0597 1.0597 0 0 0 1.0599-1.0599 1.0597 1.0597 0 0 0-1.0599-1.0594 1.0597 1.0597 0 0 0-0.01705 0zm0.01602 0.19947a0.86027 0.86027 0 0 1 0.44235 0.12144 0.86027 0.86027 0 0 1 0.29921 1.1762 0.86027 0.86027 0 0 1-1.1746 0.30541 0.86027 0.86027 0 0 1-0.31109-1.1731l0.0088-0.01499a0.86027 0.86027 0 0 1 0.73536-0.41496z" fill="#e3dedb" style="paint-order:stroke markers fill"/> <path transform="translate(-28.768 -12.237)" d="m70.062 16.125a1.0597 1.0597 0 0 0-1.0428 1.0594 1.0597 1.0597 0 0 0 1.0599 1.0599 1.0597 1.0597 0 0 0 1.0599-1.0599 1.0597 1.0597 0 0 0-1.0599-1.0594 1.0597 1.0597 0 0 0-0.01705 0zm0.01602 0.19947a0.86027 0.86027 0 0 1 0.44235 0.12144 0.86027 0.86027 0 0 1 0.29921 1.1762 0.86027 0.86027 0 0 1-1.1746 0.30541 0.86027 0.86027 0 0 1-0.31109-1.1731l0.0088-0.01499a0.86027 0.86027 0 0 1 0.73536-0.41496z" fill="#e3dedb" style="paint-order:stroke markers fill"/> <path transform="translate(-28.768 -12.237)" d="m64.237 16.125a1.0597 1.0597 0 0 0-1.0428 1.0594 1.0597 1.0597 0 0 0 1.0599 1.0599 1.0597 1.0597 0 0 0 1.0599-1.0599 1.0597 1.0597 0 0 0-1.0599-1.0594 1.0597 1.0597 0 0 0-0.01705 0zm0.01602 0.19947a0.86027 0.86027 0 0 1 0.44235 0.12144 0.86027 0.86027 0 0 1 0.29921 1.1762 0.86027 0.86027 0 0 1-1.1746 0.30541 0.86027 0.86027 0 0 1-0.31109-1.1731l0.0088-0.01499a0.86027 0.86027 0 0 1 0.73536-0.41496z" fill="#e3dedb" style="paint-order:stroke markers fill"/> <path transform="translate(-28.768 -12.237)" d="m58.413 16.125a1.0597 1.0597 0 0 0-1.0428 1.0594 1.0597 1.0597 0 0 0 1.0599 1.0599 1.0597 1.0597 0 0 0 1.0599-1.0599 1.0597 1.0597 0 0 0-1.0599-1.0594 1.0597 1.0597 0 0 0-0.01705 0zm0.01602 0.19947a0.86027 0.86027 0 0 1 0.44235 0.12144 0.86027 0.86027 0 0 1 0.29921 1.1762 0.86027 0.86027 0 0 1-1.1746 0.30541 0.86027 0.86027 0 0 1-0.31109-1.1731l0.0088-0.01499a0.86027 0.86027 0 0 1 0.73536-0.41496z" fill="#e3dedb" style="paint-order:stroke markers fill"/> <path transform="translate(-28.768 -12.237)" d="m105.01 16.125a1.0597 1.0597 0 0 0-1.0428 1.0594 1.0597 1.0597 0 0 0 1.0599 1.0599 1.0597 1.0597 0 0 0 1.0599-1.0599 1.0597 1.0597 0 0 0-1.0599-1.0594 1.0597 1.0597 0 0 0-0.017 0zm0.016 0.19947a0.86027 0.86027 0 0 1 0.44235 0.12144 0.86027 0.86027 0 0 1 0.29921 1.1762 0.86027 0.86027 0 0 1-1.1746 0.30541 0.86027 0.86027 0 0 1-0.31109-1.1731l9e-3 -0.01499a0.86027 0.86027 0 0 1 0.73536-0.41496z" fill="#e3dedb" style="paint-order:stroke markers fill"/> <path transform="translate(-28.768 -12.237)" d="m145.78 16.125a1.0597 1.0597 0 0 0-1.0428 1.0594 1.0597 1.0597 0 0 0 1.0599 1.0599 1.0597 1.0597 0 0 0 1.0599-1.0599 1.0597 1.0597 0 0 0-1.0599-1.0594 1.0597 1.0597 0 0 0-0.0171 0zm0.016 0.19947a0.86027 0.86027 0 0 1 0.44235 0.12144 0.86027 0.86027 0 0 1 0.29921 1.1762 0.86027 0.86027 0 0 1-1.1746 0.30541 0.86027 0.86027 0 0 1-0.31109-1.1731l9e-3 -0.01499a0.86027 0.86027 0 0 1 0.73536-0.41496z" fill="#e3dedb" style="paint-order:stroke markers fill"/> <path transform="translate(-28.768 -12.237)" d="m163.25 21.918a1.0597 1.0597 0 0 0-1.0428 1.0594 1.0597 1.0597 0 0 0 1.0599 1.0599 1.0597 1.0597 0 0 0 1.0599-1.0599 1.0597 1.0597 0 0 0-1.0599-1.0594 1.0597 1.0597 0 0 0-0.017 0zm0.016 0.19947a0.86027 0.86027 0 0 1 0.44235 0.12144 0.86027 0.86027 0 0 1 0.29921 1.1762 0.86027 0.86027 0 0 1-1.1746 0.30541 0.86027 0.86027 0 0 1-0.31109-1.1731l9e-3 -0.01499a0.86027 0.86027 0 0 1 0.73536-0.41496z" fill="#e3dedb" style="paint-order:stroke markers fill"/> <path transform="translate(-28.768 -12.237)" d="m157.43 21.918a1.0597 1.0597 0 0 0-1.0428 1.0594 1.0597 1.0597 0 0 0 1.0599 1.0599 1.0597 1.0597 0 0 0 1.0599-1.0599 1.0597 1.0597 0 0 0-1.0599-1.0594 1.0597 1.0597 0 0 0-0.0171 0zm0.016 0.19947a0.86027 0.86027 0 0 1 0.44235 0.12144 0.86027 0.86027 0 0 1 0.29921 1.1762 0.86027 0.86027 0 0 1-1.1746 0.30541 0.86027 0.86027 0 0 1-0.31109-1.1731l9e-3 -0.01499a0.86027 0.86027 0 0 1 0.73536-0.41496z" fill="#e3dedb" style="paint-order:stroke markers fill"/> <path transform="translate(-28.768 -12.237)" d="m151.6 21.918a1.0597 1.0597 0 0 0-1.0428 1.0594 1.0597 1.0597 0 0 0 1.0599 1.0599 1.0597 1.0597 0 0 0 1.0599-1.0599 1.0597 1.0597 0 0 0-1.0599-1.0594 1.0597 1.0597 0 0 0-0.0171 0zm0.016 0.19947a0.86027 0.86027 0 0 1 0.44235 0.12144 0.86027 0.86027 0 0 1 0.29921 1.1762 0.86027 0.86027 0 0 1-1.1746 0.30541 0.86027 0.86027 0 0 1-0.31109-1.1731l9e-3 -0.01499a0.86027 0.86027 0 0 1 0.73536-0.41496z" fill="#e3dedb" style="paint-order:stroke markers fill"/> <path transform="translate(-28.768 -12.237)" d="m134.13 21.918a1.0597 1.0597 0 0 0-1.0428 1.0594 1.0597 1.0597 0 0 0 1.0599 1.0599 1.0597 1.0597 0 0 0 1.0599-1.0599 1.0597 1.0597 0 0 0-1.0599-1.0594 1.0597 1.0597 0 0 0-0.0171 0zm0.016 0.19947a0.86027 0.86027 0 0 1 0.44235 0.12144 0.86027 0.86027 0 0 1 0.29921 1.1762 0.86027 0.86027 0 0 1-1.1746 0.30541 0.86027 0.86027 0 0 1-0.31109-1.1731l9e-3 -0.01499a0.86027 0.86027 0 0 1 0.73536-0.41496z" fill="#e3dedb" style="paint-order:stroke markers fill"/> <path transform="translate(-28.768 -12.237)" d="m139.95 21.918a1.0597 1.0597 0 0 0-1.0428 1.0594 1.0597 1.0597 0 0 0 1.0599 1.0599 1.0597 1.0597 0 0 0 1.0599-1.0599 1.0597 1.0597 0 0 0-1.0599-1.0594 1.0597 1.0597 0 0 0-0.0171 0zm0.016 0.19947a0.86027 0.86027 0 0 1 0.44235 0.12144 0.86027 0.86027 0 0 1 0.29921 1.1762 0.86027 0.86027 0 0 1-1.1746 0.30541 0.86027 0.86027 0 0 1-0.31109-1.1731l9e-3 -0.01499a0.86027 0.86027 0 0 1 0.73536-0.41496z" fill="#e3dedb" style="paint-order:stroke markers fill"/> <path transform="translate(-28.768 -12.237)" d="m128.3 21.918a1.0597 1.0597 0 0 0-1.0428 1.0594 1.0597 1.0597 0 0 0 1.0599 1.0599 1.0597 1.0597 0 0 0 1.0599-1.0599 1.0597 1.0597 0 0 0-1.0599-1.0594 1.0597 1.0597 0 0 0-0.017 0zm0.016 0.19947a0.86027 0.86027 0 0 1 0.44235 0.12144 0.86027 0.86027 0 0 1 0.29921 1.1762 0.86027 0.86027 0 0 1-1.1746 0.30541 0.86027 0.86027 0 0 1-0.31109-1.1731l9e-3 -0.01499a0.86027 0.86027 0 0 1 0.73536-0.41496z" fill="#e3dedb" style="paint-order:stroke markers fill"/> <path transform="translate(-28.768 -12.237)" d="m122.48 21.918a1.0597 1.0597 0 0 0-1.0428 1.0594 1.0597 1.0597 0 0 0 1.0599 1.0599 1.0597 1.0597 0 0 0 1.0599-1.0599 1.0597 1.0597 0 0 0-1.0599-1.0594 1.0597 1.0597 0 0 0-0.0171 0zm0.016 0.19947a0.86027 0.86027 0 0 1 0.44235 0.12144 0.86027 0.86027 0 0 1 0.29921 1.1762 0.86027 0.86027 0 0 1-1.1746 0.30541 0.86027 0.86027 0 0 1-0.31109-1.1731l9e-3 -0.01499a0.86027 0.86027 0 0 1 0.73535-0.41496z" fill="#e3dedb" style="paint-order:stroke markers fill"/> <path transform="translate(-28.768 -12.237)" d="m116.66 21.918a1.0597 1.0597 0 0 0-1.0428 1.0594 1.0597 1.0597 0 0 0 1.0599 1.0599 1.0597 1.0597 0 0 0 1.0599-1.0599 1.0597 1.0597 0 0 0-1.0599-1.0594 1.0597 1.0597 0 0 0-0.0171 0zm0.016 0.19947a0.86027 0.86027 0 0 1 0.44235 0.12144 0.86027 0.86027 0 0 1 0.2992 1.1762 0.86027 0.86027 0 0 1-1.1746 0.30541 0.86027 0.86027 0 0 1-0.3111-1.1731l9e-3 -0.01499a0.86027 0.86027 0 0 1 0.73535-0.41496z" fill="#e3dedb" style="paint-order:stroke markers fill"/> <path transform="translate(-28.768 -12.237)" d="m110.83 21.918a1.0597 1.0597 0 0 0-1.0428 1.0594 1.0597 1.0597 0 0 0 1.0599 1.0599 1.0597 1.0597 0 0 0 1.0599-1.0599 1.0597 1.0597 0 0 0-1.0599-1.0594 1.0597 1.0597 0 0 0-0.017 0zm0.016 0.19947a0.86027 0.86027 0 0 1 0.44235 0.12144 0.86027 0.86027 0 0 1 0.2992 1.1762 0.86027 0.86027 0 0 1-1.1746 0.30541 0.86027 0.86027 0 0 1-0.31109-1.1731l9e-3 -0.01499a0.86027 0.86027 0 0 1 0.73536-0.41496z" fill="#e3dedb" style="paint-order:stroke markers fill"/> <path transform="translate(-28.768 -12.237)" d="m99.183 21.918a1.0597 1.0597 0 0 0-1.0428 1.0594 1.0597 1.0597 0 0 0 1.0599 1.0599 1.0597 1.0597 0 0 0 1.0599-1.0599 1.0597 1.0597 0 0 0-1.0599-1.0594 1.0597 1.0597 0 0 0-0.01705 0zm0.01602 0.19947a0.86027 0.86027 0 0 1 0.44235 0.12144 0.86027 0.86027 0 0 1 0.29921 1.1762 0.86027 0.86027 0 0 1-1.1746 0.30541 0.86027 0.86027 0 0 1-0.31109-1.1731l0.0088-0.01499a0.86027 0.86027 0 0 1 0.73536-0.41496z" fill="#e3dedb" style="paint-order:stroke markers fill"/> <path transform="translate(-28.768 -12.237)" d="m93.359 21.918a1.0597 1.0597 0 0 0-1.0428 1.0594 1.0597 1.0597 0 0 0 1.0599 1.0599 1.0597 1.0597 0 0 0 1.0599-1.0599 1.0597 1.0597 0 0 0-1.0599-1.0594 1.0597 1.0597 0 0 0-0.01705 0zm0.01602 0.19947a0.86027 0.86027 0 0 1 0.44235 0.12144 0.86027 0.86027 0 0 1 0.29921 1.1762 0.86027 0.86027 0 0 1-1.1746 0.30541 0.86027 0.86027 0 0 1-0.31109-1.1731l0.0088-0.01499a0.86027 0.86027 0 0 1 0.73536-0.41496z" fill="#e3dedb" style="paint-order:stroke markers fill"/> <path transform="translate(-28.768 -12.237)" d="m87.534 21.918a1.0597 1.0597 0 0 0-1.0428 1.0594 1.0597 1.0597 0 0 0 1.0599 1.0599 1.0597 1.0597 0 0 0 1.0599-1.0599 1.0597 1.0597 0 0 0-1.0599-1.0594 1.0597 1.0597 0 0 0-0.01705 0zm0.01602 0.19947a0.86027 0.86027 0 0 1 0.44235 0.12144 0.86027 0.86027 0 0 1 0.29921 1.1762 0.86027 0.86027 0 0 1-1.1746 0.30541 0.86027 0.86027 0 0 1-0.31109-1.1731l0.0088-0.01499a0.86027 0.86027 0 0 1 0.73536-0.41496z" fill="#e3dedb" style="paint-order:stroke markers fill"/> <path transform="translate(-28.768 -12.237)" d="m81.71 21.918a1.0597 1.0597 0 0 0-1.0428 1.0594 1.0597 1.0597 0 0 0 1.0599 1.0599 1.0597 1.0597 0 0 0 1.0599-1.0599 1.0597 1.0597 0 0 0-1.0599-1.0594 1.0597 1.0597 0 0 0-0.01705 0zm0.01602 0.19947a0.86027 0.86027 0 0 1 0.44235 0.12144 0.86027 0.86027 0 0 1 0.29921 1.1762 0.86027 0.86027 0 0 1-1.1746 0.30541 0.86027 0.86027 0 0 1-0.31109-1.1731l0.0088-0.01499a0.86027 0.86027 0 0 1 0.73536-0.41496z" fill="#e3dedb" style="paint-order:stroke markers fill"/> <path transform="translate(-28.768 -12.237)" d="m75.886 21.918a1.0597 1.0597 0 0 0-1.0428 1.0594 1.0597 1.0597 0 0 0 1.0599 1.0599 1.0597 1.0597 0 0 0 1.0599-1.0599 1.0597 1.0597 0 0 0-1.0599-1.0594 1.0597 1.0597 0 0 0-0.01705 0zm0.01602 0.19947a0.86027 0.86027 0 0 1 0.44235 0.12144 0.86027 0.86027 0 0 1 0.29921 1.1762 0.86027 0.86027 0 0 1-1.1746 0.30541 0.86027 0.86027 0 0 1-0.31109-1.1731l0.0088-0.01499a0.86027 0.86027 0 0 1 0.73536-0.41496z" fill="#e3dedb" style="paint-order:stroke markers fill"/> <path transform="translate(-28.768 -12.237)" d="m70.062 21.918a1.0597 1.0597 0 0 0-1.0428 1.0594 1.0597 1.0597 0 0 0 1.0599 1.0599 1.0597 1.0597 0 0 0 1.0599-1.0599 1.0597 1.0597 0 0 0-1.0599-1.0594 1.0597 1.0597 0 0 0-0.01705 0zm0.01602 0.19947a0.86027 0.86027 0 0 1 0.44235 0.12144 0.86027 0.86027 0 0 1 0.29921 1.1762 0.86027 0.86027 0 0 1-1.1746 0.30541 0.86027 0.86027 0 0 1-0.31109-1.1731l0.0088-0.01499a0.86027 0.86027 0 0 1 0.73536-0.41496z" fill="#e3dedb" style="paint-order:stroke markers fill"/> <path transform="translate(-28.768 -12.237)" d="m64.237 21.918a1.0597 1.0597 0 0 0-1.0428 1.0594 1.0597 1.0597 0 0 0 1.0599 1.0599 1.0597 1.0597 0 0 0 1.0599-1.0599 1.0597 1.0597 0 0 0-1.0599-1.0594 1.0597 1.0597 0 0 0-0.01705 0zm0.01602 0.19947a0.86027 0.86027 0 0 1 0.44235 0.12144 0.86027 0.86027 0 0 1 0.29921 1.1762 0.86027 0.86027 0 0 1-1.1746 0.30541 0.86027 0.86027 0 0 1-0.31109-1.1731l0.0088-0.01499a0.86027 0.86027 0 0 1 0.73536-0.41496z" fill="#e3dedb" style="paint-order:stroke markers fill"/> <path transform="translate(-28.768 -12.237)" d="m58.413 21.918a1.0597 1.0597 0 0 0-1.0428 1.0594 1.0597 1.0597 0 0 0 1.0599 1.0599 1.0597 1.0597 0 0 0 1.0599-1.0599 1.0597 1.0597 0 0 0-1.0599-1.0594 1.0597 1.0597 0 0 0-0.01705 0zm0.01602 0.19947a0.86027 0.86027 0 0 1 0.44235 0.12144 0.86027 0.86027 0 0 1 0.29921 1.1762 0.86027 0.86027 0 0 1-1.1746 0.30541 0.86027 0.86027 0 0 1-0.31109-1.1731l0.0088-0.01499a0.86027 0.86027 0 0 1 0.73536-0.41496z" fill="#e3dedb" style="paint-order:stroke markers fill"/> <path transform="translate(-28.768 -12.237)" d="m105.01 21.918a1.0597 1.0597 0 0 0-1.0428 1.0594 1.0597 1.0597 0 0 0 1.0599 1.0599 1.0597 1.0597 0 0 0 1.0599-1.0599 1.0597 1.0597 0 0 0-1.0599-1.0594 1.0597 1.0597 0 0 0-0.017 0zm0.016 0.19947a0.86027 0.86027 0 0 1 0.44235 0.12144 0.86027 0.86027 0 0 1 0.29921 1.1762 0.86027 0.86027 0 0 1-1.1746 0.30541 0.86027 0.86027 0 0 1-0.31109-1.1731l9e-3 -0.01499a0.86027 0.86027 0 0 1 0.73536-0.41496z" fill="#e3dedb" style="paint-order:stroke markers fill"/> <path transform="translate(-28.768 -12.237)" d="m145.78 21.918a1.0597 1.0597 0 0 0-1.0428 1.0594 1.0597 1.0597 0 0 0 1.0599 1.0599 1.0597 1.0597 0 0 0 1.0599-1.0599 1.0597 1.0597 0 0 0-1.0599-1.0594 1.0597 1.0597 0 0 0-0.0171 0zm0.016 0.19947a0.86027 0.86027 0 0 1 0.44235 0.12144 0.86027 0.86027 0 0 1 0.29921 1.1762 0.86027 0.86027 0 0 1-1.1746 0.30541 0.86027 0.86027 0 0 1-0.31109-1.1731l9e-3 -0.01499a0.86027 0.86027 0 0 1 0.73536-0.41496z" fill="#e3dedb" style="paint-order:stroke markers fill"/> <path transform="scale(.26458)" d="m506.75 59.551v8.2988h8v-8.2988h-4.2012zm4.0039 0.91211a3.2366 3.2366 0 0 1 1.6562 0.45898 3.2366 3.2366 0 0 1 1.125 4.4238 3.2366 3.2366 0 0 1-4.418 1.1484 3.2366 3.2366 0 0 1-1.1719-4.4121l0.0332-0.05664a3.2366 3.2366 0 0 1 2.7754-1.5625z" fill="#e3dedb" fill-rule="evenodd"/> <path transform="scale(.26458)" d="m484.75 82.35v8.3008h8.1992v-8.3008h-4.1992zm4.1035 0.91406a3.2366 3.2366 0 0 1 1.6562 0.45898 3.2366 3.2366 0 0 1 1.125 4.4238 3.2366 3.2366 0 0 1-4.418 1.1484 3.2366 3.2366 0 0 1-1.1699-4.4141l0.0332-0.05469a3.2366 3.2366 0 0 1 2.7734-1.5625z" fill="#e3dedb" fill-rule="evenodd"/> <path transform="translate(-28.768 -12.237)" d="m158.09 28.029a1.0597 1.0597 0 0 0-1.0428 1.0594 1.0597 1.0597 0 0 0 1.0599 1.0599 1.0597 1.0597 0 0 0 1.0599-1.0599 1.0597 1.0597 0 0 0-1.0599-1.0594 1.0597 1.0597 0 0 0-0.017 0zm0.016 0.19947a0.86027 0.86027 0 0 1 0.44235 0.12144 0.86027 0.86027 0 0 1 0.29921 1.1762 0.86027 0.86027 0 0 1-1.1746 0.30541 0.86027 0.86027 0 0 1-0.31109-1.1731l9e-3 -0.01499a0.86027 0.86027 0 0 1 0.73536-0.41496z" fill="#e3dedb" style="paint-order:stroke markers fill"/> <path transform="translate(-28.768 -12.237)" d="m163.89 34.082a1.0597 1.0597 0 0 0-1.0428 1.0594 1.0597 1.0597 0 0 0 1.0599 1.0599 1.0597 1.0597 0 0 0 1.0599-1.0599 1.0597 1.0597 0 0 0-1.0599-1.0594 1.0597 1.0597 0 0 0-0.017 0zm0.016 0.19947a0.86027 0.86027 0 0 1 0.44235 0.12144 0.86027 0.86027 0 0 1 0.29921 1.1762 0.86027 0.86027 0 0 1-1.1746 0.30541 0.86027 0.86027 0 0 1-0.31109-1.1731l9e-3 -0.01499a0.86027 0.86027 0 0 1 0.73536-0.41496z" fill="#e3dedb" style="paint-order:stroke markers fill"/> <path transform="translate(-28.768 -12.237)" d="m175.23 14.075c-3.466 0-6.2709 2.8047-6.2709 6.3236 0 3.466 2.8049 6.2709 6.2709 6.2709 3.5454 0 6.35-2.8049 6.35-6.2709 0-3.519-2.8046-6.3236-6.35-6.3236zm0.1323 3.4132c1.561 0 2.8572 1.3494 2.8572 2.9104s-1.2962 2.8045-2.8572 2.8045c-1.6404 0-2.8045-1.2434-2.8045-2.8045 0-1.561 1.1641-2.9104 2.8045-2.9104z" fill="#e3dedb" fill-rule="evenodd"/> <path transform="translate(-28.768 -12.237)" d="m181.58 20.399c0 3.466-2.8046 6.2706-6.35 6.2706-3.466 0-6.2706-2.8046-6.2706-6.2706 0-3.519 2.8046-6.3235 6.2706-6.3235 3.5454 0 6.35 2.8046 6.35 6.3235z" fill="none" stroke="#1a1a1a" stroke-linejoin="round" stroke-width=".5"/> <path transform="translate(-28.768 -12.237)" d="m178.22 20.399c0 1.561-1.2965 2.8046-2.8575 2.8046-1.6404 0-2.8046-1.2435-2.8046-2.8046 0-1.561 1.1642-2.9104 2.8046-2.9104 1.561 0 2.8575 1.3494 2.8575 2.9104z" fill="none" stroke="#1a1a1a" stroke-linejoin="round" stroke-width=".5"/> <path transform="translate(-28.768 -12.237)" d="m175.28 67.416c-3.466 0-6.2704 2.8046-6.2704 6.35 0 3.466 2.8044 6.2704 6.2704 6.2704 3.519 0 6.3236-2.8044 6.3236-6.2704 0-3.5454-2.8047-6.35-6.3236-6.35zm0.15865 3.4396c1.5875 0 2.805 1.3229 2.805 2.9104 0 1.561-1.2175 2.9104-2.805 2.9104-1.561 0-2.9104-1.3494-2.9104-2.9104 0-1.5875 1.3494-2.9104 2.9104-2.9104z" fill="#e3dedb" fill-rule="evenodd"/> <path transform="translate(-28.768 -12.237)" d="m181.6 73.765c0 3.466-2.8046 6.2706-6.3235 6.2706-3.466 0-6.2706-2.8046-6.2706-6.2706 0-3.5454 2.8046-6.35 6.2706-6.35 3.519 0 6.3235 2.8046 6.3235 6.35z" fill="none" stroke="#1a1a1a" stroke-linejoin="round" stroke-width=".5"/> <path transform="translate(-28.768 -12.237)" d="m178.24 73.765c0 1.561-1.2171 2.9104-2.8046 2.9104-1.561 0-2.9104-1.3494-2.9104-2.9104 0-1.5875 1.3494-2.9104 2.9104-2.9104 1.5875 0 2.8046 1.3229 2.8046 2.9104z" fill="none" stroke="#1a1a1a" stroke-linejoin="round" stroke-width=".5"/> <path transform="translate(-28.768 -12.237)" d="m40.792 67.019c-3.466 0-6.2709 2.9104-6.2709 6.35 0 3.466 2.8049 6.3764 6.2709 6.3764 3.519 0 6.3231-2.9103 6.3231-6.3764 0-3.4396-2.8042-6.35-6.3231-6.35zm0.10542 3.545c1.561 0 2.8577 1.2175 2.8577 2.805 0 1.614-1.2967 2.9104-2.8577 2.9104-1.5081 0-2.8045-1.2965-2.8045-2.9104 0-1.5875 1.2964-2.805 2.8045-2.805z" fill="#e3dedb" fill-rule="evenodd"/> <path transform="translate(-28.768 -12.237)" d="m47.115 73.369c0 3.466-2.8046 6.3765-6.3235 6.3765-3.466 0-6.2706-2.9104-6.2706-6.3765 0-3.4396 2.8046-6.35 6.2706-6.35 3.519 0 6.3235 2.9104 6.3235 6.35z" fill="none" stroke="#1a1a1a" stroke-linejoin="round" stroke-width=".5"/> <path transform="translate(-28.768 -12.237)" d="m43.755 73.369c0 1.614-1.2965 2.9104-2.8575 2.9104-1.5081 0-2.8046-1.2965-2.8046-2.9104 0-1.5875 1.2965-2.8046 2.8046-2.8046 1.561 0 2.8575 1.2171 2.8575 2.8046z" fill="none" stroke="#1a1a1a" stroke-linejoin="round" stroke-width=".5"/> <path transform="translate(-28.768 -12.237)" d="m40.951 13.97c-3.4131 0-6.3236 2.7777-6.3236 6.3231 0 3.466 2.9105 6.2709 6.3236 6.2709 3.466 0 6.2704-2.8049 6.2704-6.2709 0-3.5454-2.8044-6.3231-6.2704-6.3231zm0.10594 3.4659c1.5875 0 2.9368 1.2961 2.9368 2.8572 0 1.614-1.3493 2.9104-2.9368 2.9104-1.561 0-2.9104-1.2965-2.9104-2.9104 0-1.561 1.3494-2.8572 2.9104-2.8572z" fill="#e3dedb" fill-rule="evenodd"/> <path transform="translate(-28.768 -12.237)" d="m47.221 20.293c0 3.466-2.8046 6.2706-6.2706 6.2706-3.4131 0-6.3235-2.8046-6.3235-6.2706 0-3.5454 2.9104-6.3235 6.3235-6.3235 3.466 0 6.2706 2.7781 6.2706 6.3235z" fill="none" stroke="#1a1a1a" stroke-linejoin="round" stroke-width=".5"/> <path transform="translate(-28.768 -12.237)" d="m43.993 20.293c0 1.614-1.3494 2.9104-2.9369 2.9104-1.561 0-2.9104-1.2965-2.9104-2.9104 0-1.561 1.3494-2.8575 2.9104-2.8575 1.5875 0 2.9369 1.2965 2.9369 2.8575z" fill="none" stroke="#1a1a1a" stroke-linejoin="round" stroke-width=".5"/> <path transform="translate(-28.768 -12.237)" d="m30.073 30.379h5.5279c0.65437 0 1.1812 0.5268 1.1812 1.1812v22.442c0 0.65437-0.5268 1.1812-1.1812 1.1812h-5.5279c-0.65437 0-1.1812-0.5268-1.1812-1.1812v-22.442c0-0.65437 0.5268-1.1812 1.1812-1.1812z" fill="#1a1a1a" stroke="#1a1a1a" stroke-width=".247" style="paint-order:stroke fill markers"/> <path transform="translate(-28.768 -12.237)" d="m34.79 30.544h2.0399v24.485h-2.0399z" fill="#1a1a1a" stroke="#1a1a1a" stroke-width=".55751" style="paint-order:stroke fill markers"/> <path transform="translate(-28.768 -12.237)" d="m61.059 83.185h-12.594v-17.595h25.294v17.595z" fill="#e3dedb" fill-rule="evenodd" stroke="#1a1a1a" stroke-linejoin="round" stroke-width=".5"/> <path transform="translate(-28.768 -12.237)" d="m149.64 77.893v-6.7204h16.669v13.494h-16.669z" fill="#e3dedb" fill-rule="evenodd" stroke="#1a1a1a" stroke-linejoin="round" stroke-width=".5"/> <path transform="translate(-28.768 -12.237)" d="m120.11 77.787v-6.7204h16.669v13.494h-16.669z" fill="#e3dedb" fill-rule="evenodd" stroke="#1a1a1a" stroke-linejoin="round" stroke-width=".5"/> <path transform="translate(-28.768 -12.237)" d="m49.788 56.118h-12.938v-26.696h26.009v26.696z" fill="#e3dedb" fill-rule="evenodd" stroke="#1a1a1a" stroke-linejoin="round" stroke-width=".5"/> <rect transform="translate(-28.768 -12.237)" x="178.04" y="27.814" width="3.016" height="39.279" fill="#e3dedb" stroke="#1a1a1a" stroke-width=".5" style="paint-order:stroke fill markers"/> <rect transform="translate(-28.768 -12.237)" x="181.05" y="27.814" width="3.3892" height="39.337" fill="#1a1a1a" stroke="#1a1a1a" stroke-width=".16549" style="paint-order:stroke fill markers"/> <path d="m114.36 40.268c-0.82253-0.05792-1.5804-0.40851-2.2162-1.0252l-0.10338-0.10029-0.143-0.05351c-0.61487-0.2301-1.1486-0.52891-1.8052-1.0107-0.11031-0.08093-0.15679-0.1102-0.19463-0.12255-0.26422-0.0862-0.60859-0.2923-0.9156-0.54796-0.17259-0.14372-0.40983-0.39072-0.55225-0.57493-0.27969-0.36181-0.49023-0.79681-0.59958-1.2389-0.0287-0.11613-0.0676-0.31724-0.0676-0.35002 0-0.01039-0.045-0.14153-0.10006-0.2914-0.18923-0.51544-0.26183-0.75137-0.32948-1.0708l-0.0177-0.08332-0.0863-0.10335c-0.43197-0.51678-0.68195-1.0997-0.7382-1.7215-0.0121-0.13433-5e-3 -0.51977 0.0119-0.64192 0.0523-0.37748 0.15483-0.71016 0.32256-1.0474 0.16384-0.32938 0.34824-0.58822 0.59539-0.83574 0.14196-0.14217 0.25074-0.23329 0.38108-0.31924l0.083-0.05469 0.146-0.25718 5e-3 -0.18271c0.0217-0.84562 0.23811-1.5122 0.66583-2.0512 0.0904-0.11394 0.32108-0.34863 0.43567-0.4433 0.17061-0.14094 0.39804-0.29994 0.6077-0.42483 0.0612-0.03644 0.11594-0.0705 0.12173-0.0757 8e-3 -0.0075-4e-3 -0.01303-0.0582-0.02668-0.36548-0.09166-0.5285-0.21282-0.60404-0.44895l-0.0175-0.05483-0.10228-0.03315c-0.33063-0.10716-0.49076-0.25744-0.56263-0.52804-0.0128-0.04834-0.025-0.07785-0.034-0.08291-0.0381-0.02123-0.16999-0.11444-0.22055-0.15576-0.11836-0.09672-0.22169-0.22503-0.26373-0.32751-0.0326-0.07917-0.0423-0.12343-0.0475-0.21401l-5e-3 -0.08471-0.0495-0.03643c-0.0637-0.04681-0.16693-0.15647-0.20112-0.21376-0.0779-0.13046-0.10425-0.2837-0.0761-0.4423 5e-3 -0.02561 5.5e-4 -0.03285-0.0482-0.09136-0.11094-0.13259-0.18753-0.26917-0.21459-0.38266-0.024-0.10055-0.0132-0.21197 0.031-0.32036 3e-3 -0.0073-0.0131-0.03689-0.0413-0.07623-0.0882-0.12299-0.13791-0.24015-0.1488-0.35066-0.0106-0.10801 0.0293-0.23352 0.11822-0.37105l0.0357-0.05519-0.0222-0.04411c-0.0449-0.08907-0.0654-0.17102-0.0698-0.27845-5e-3 -0.11618 6e-3 -0.16921 0.0508-0.26174 0.0913-0.18657 0.32881-0.29215 0.61916-0.27515l0.0882 0.0051 0.0329-0.04273c0.0733-0.0951 0.18975-0.17188 0.3329-0.21963 0.12604-0.04204 0.20026-0.05145 0.41099-0.05209l0.19065-5.57e-4 0.0517-0.05126c0.0965-0.09561 0.19804-0.13319 0.37721-0.13967 0.0612-0.0022 0.13802-0.0011 0.17079 0.0025l0.0596 0.0065 0.0516-0.03908c0.0671-0.05075 0.17817-0.10274 0.25817-0.12079 0.13742-0.03101 0.32063-0.01346 0.50343 0.04823l0.0824 0.02782 0.0604-0.03965c0.0333-0.02181 0.089-0.05091 0.12413-0.06466 0.0558-0.02189 0.0759-0.02547 0.15969-0.02861 0.12166-0.0045 0.17514 0.0082 0.36284 0.08627 0.20752 0.08635 0.18363 0.08136 0.27387 0.05708 0.0679-0.01828 0.0934-0.02094 0.20472-0.02136 0.15141-5.58e-4 0.1765 0.0063 0.32546 0.08882 0.1722 0.09544 0.15744 0.09096 0.25209 0.07649 0.0978-0.01493 0.24842-0.01098 0.3201 0.0084 0.0684 0.01847 0.15741 0.0624 0.21782 0.1075 0.0287 0.02146 0.10053 0.08769 0.15952 0.14719l0.10724 0.10818 0.28231-0.0042 0.0813 0.05277c0.47044 0.3055 0.8701 0.86562 1.1063 1.5505l0.0491 0.14238 0.0301-0.09074c0.23326-0.70599 0.64489-1.2914 1.1274-1.6033l0.0788-0.05092 0.27676 0.0038 0.11647-0.11406c0.1621-0.15875 0.24368-0.21331 0.37096-0.24816 0.0732-0.02003 0.22245-0.02415 0.32144-0.0089l0.0834 0.0129 0.0596-0.03052c0.0328-0.01679 0.10068-0.05219 0.15094-0.07866 0.11955-0.06299 0.18068-0.07712 0.31241-0.0722 0.0712 0.0027 0.11774 0.0093 0.17652 0.02509l0.0799 0.02148 0.087-0.03544c0.0479-0.0195 0.12215-0.05003 0.16512-0.06785 0.1138-0.04718 0.18813-0.06417 0.28097-0.06417 0.0445 0 0.0989 0.0052 0.12577 0.01217 0.0593 0.01525 0.15361 0.05936 0.20352 0.09522l0.0381 0.02735 0.0816-0.02719c0.1368-0.0456 0.23348-0.06247 0.35567-0.06208 0.0832 2.82e-4 0.12129 0.0041 0.16983 0.01709 0.08 0.0214 0.1633 0.06155 0.228 0.10987l0.051 0.03809h0.17079c0.13776 0 0.18146 0.0028 0.22589 0.01413 0.086 0.02206 0.15279 0.05905 0.21765 0.12058l0.0582 0.05527 0.19593 8.36e-4c0.15364 6.69e-4 0.21039 0.0038 0.26287 0.01481 0.20262 0.04224 0.3457 0.11565 0.45241 0.23213 0.0267 0.0292 0.0486 0.05534 0.0486 0.05812 0 0.0028 0.0652 0.0052 0.14497 0.0056 0.13004 5.58e-4 0.15305 0.0028 0.22339 0.0214 0.11759 0.0312 0.18835 0.06937 0.25999 0.14025 0.0445 0.04403 0.0681 0.07543 0.0897 0.11952 0.0719 0.14647 0.0658 0.33726-0.0164 0.5171l-0.0283 0.06197 0.0417 0.06501c0.10241 0.15964 0.13245 0.29212 0.0989 0.43607-0.0159 0.06808-0.079 0.1949-0.13659 0.27406l-0.0462 0.06355 0.0187 0.04644c0.0104 0.02554 0.0227 0.07743 0.0273 0.1153 0.0216 0.17131-0.0564 0.35713-0.24106 0.5733-0.0366 0.04287-0.0373 0.04475-0.0306 0.07944 0.0211 0.10929 2e-3 0.27026-0.0434 0.36979-0.0439 0.09589-0.14671 0.21558-0.24511 0.28535l-0.0448 0.03177-3.8e-4 0.07221c-9.2e-4 0.24222-0.14729 0.45136-0.46126 0.66066l-0.0836 0.0557-0.0217 0.07839c-0.0118 0.04311-0.0383 0.11234-0.0587 0.15384-0.0318 0.06488-0.0478 0.08607-0.11321 0.15093-0.10402 0.10307-0.2376 0.17619-0.41769 0.22864l-0.0736 0.02144-0.0177 0.05567c-0.0746 0.23444-0.2262 0.34854-0.59474 0.4475l-0.0823 0.0221 0.11625 0.06958c0.77373 0.46315 1.2191 0.94499 1.4806 1.6018 0.15585 0.39146 0.23234 0.80947 0.25218 1.3783l5e-3 0.14299 0.0708 0.12414 0.0709 0.12414 0.065 0.04268c0.3953 0.25928 0.7477 0.67187 0.99379 1.1635 0.47355 0.94608 0.46131 1.9986-0.0336 2.8829-0.10742 0.19195-0.26662 0.41748-0.4082 0.57827-0.0472 0.05363-0.0477 0.05454-0.0656 0.14299-0.0609 0.29943-0.12634 0.51322-0.31526 1.0304-0.0972 0.26608-0.10433 0.28963-0.12619 0.41705-0.11184 0.65202-0.38547 1.2137-0.83868 1.7217-0.34762 0.38961-0.87868 0.7666-1.2586 0.89349-0.0571 0.01907-0.0879 0.0377-0.22124 0.13391-0.23485 0.16943-0.30368 0.21731-0.4539 0.31574-0.4658 0.30525-0.90197 0.52819-1.3707 0.70062l-0.11272 0.04147-0.10574 0.09956c-0.68567 0.64562-1.3905 0.97066-2.2347 1.0306-0.12631 9e-3 -0.40207 0.0088-0.53224-3.75e-4zm0.61278-0.65494c0.59075-0.07599 1.2265-0.39394 1.6675-0.83393 0.29863-0.29797 0.39548-0.51635 0.30489-0.68744-0.16451-0.3107-0.96046-0.58222-1.8384-0.62713-0.19345-0.0099-0.68503 0.0014-0.85396 0.01958-0.70401 0.07589-1.3617 0.28506-1.6749 0.5327-0.0719 0.05686-0.1269 0.12102-0.16268 0.1898-0.023 0.04409-0.0251 0.05446-0.0252 0.12412-9e-5 0.07352 9.3e-4 0.07822 0.0333 0.14299 0.0465 0.09301 0.12406 0.19328 0.23639 0.30535 0.45975 0.45871 1.1661 0.79428 1.7799 0.84558 0.1176 0.0099 0.41707 0.0034 0.5331-0.01163zm3.3602-2.0253c0.19037-0.0099 0.45074-0.07264 0.67018-0.16148 0.4114-0.16655 0.80985-0.46189 1.1396-0.84466 0.10464-0.12148 0.27869-0.3537 0.32927-0.43934 0.17154-0.29041 0.27072-0.59948 0.3201-0.9975 0.0161-0.12917 0.0134-0.53138-5e-3 -0.67523-0.0361-0.29292-0.10474-0.54634-0.20372-0.75234-0.10272-0.21383-0.18917-0.30253-0.36441-0.37398-0.10993-0.04481-0.19996-0.05968-0.33082-0.05461-0.12745 0.0049-0.19038 0.01695-0.32932 0.06287-0.25833 0.08538-0.5662 0.27778-0.89404 0.55873-0.1325 0.11355-0.44991 0.42635-0.57561 0.56726-0.18835 0.21113-0.34182 0.44083-0.48891 0.73174-0.1943 0.38431-0.31705 0.76516-0.37477 1.1629-0.0175 0.12037-0.0198 0.43814-4e-3 0.52826 0.0416 0.2358 0.13861 0.429 0.25489 0.5079 0.10524 0.07141 0.23948 0.12429 0.39593 0.15597 0.0992 0.0201 0.26533 0.03487 0.33958 0.03021 0.0218-0.0014 0.076-0.0044 0.12023-0.0066zm-7.0393-0.07103c0.10861-0.01978 0.20663-0.04981 0.28808-0.08823 0.18308-0.08636 0.29928-0.27261 0.34923-0.55981 0.0182-0.1047 0.018-0.37436-4.7e-4 -0.50453-0.0863-0.60983-0.36503-1.2248-0.74905-1.653-0.34152-0.38078-0.74336-0.69878-1.1241-0.88956-0.45819-0.2296-0.85952-0.26892-1.1786-0.11547-0.12971 0.06238-0.20079 0.13954-0.28243 0.30664-0.0787 0.16102-0.12145 0.34434-0.13397 0.57408-0.0258 0.4727 0.0974 0.99856 0.35413 1.5121 0.0857 0.17133 0.14048 0.25313 0.28961 0.43198 0.0892 0.10696 0.29323 0.31038 0.39884 0.39764 0.41778 0.34519 0.88119 0.55037 1.3598 0.6021 0.074 8e-3 0.35938-0.0014 0.42897-0.014zm3.6893-0.74798c0.99962-0.11693 1.8118-0.80359 2.0147-1.7034 0.0319-0.14129 0.0441-0.26147 0.0441-0.43294 0-0.32795-0.0606-0.59159-0.20282-0.88176-0.38231-0.78023-1.2194-1.275-2.1572-1.275-0.67291 0-1.2888 0.24799-1.7446 0.70244-0.32121 0.3203-0.51763 0.69476-0.592 1.1286-0.0234 0.13617-0.029 0.40608-0.0118 0.55503 0.0443 0.38162 0.19663 0.73838 0.44882 1.0513 0.0344 0.04274 0.11398 0.12788 0.17675 0.18919 0.40565 0.3962 0.94909 0.63482 1.546 0.67884 0.11828 0.0088 0.34864 0.0028 0.47795-0.01235zm-6.7579-3.3106c0.36597-0.17923 0.71249-1.2098 0.80976-2.4084 0.0132-0.16217 0.0132-0.6005-5e-5 -0.73083-0.037-0.36649-0.11321-0.59657-0.23662-0.71482-0.0665-0.06377-0.15647-0.09317-0.2361-0.07717-0.0971 0.0195-0.39178 0.22616-0.57985 0.40663-0.40244 0.38618-0.64227 0.88014-0.71359 1.4697-0.0131 0.10769-0.0129 0.43166 2.8e-4 0.54415 0.0574 0.492 0.2299 0.93082 0.49647 1.2632 0.0798 0.09956 0.24399 0.25439 0.28059 0.26466 0.0502 0.01406 0.13128 0.0063 0.17911-0.01711zm12.996-0.0398c0.0398-0.01246 0.13635-0.09514 0.21681-0.18551 0.2926-0.32864 0.47805-0.74853 0.55368-1.2537 0.0155-0.10356 0.0179-0.15087 0.0178-0.36144 0-0.19243-3e-3 -0.2619-0.0143-0.33761-0.0428-0.28572-0.11062-0.51064-0.22334-0.74073-0.20776-0.42408-0.52008-0.75938-0.94973-1.0196l-0.0834-0.05052-0.0715 9.4e-5c-0.0631 7.5e-5 -0.077 0.0029-0.11773 0.02324-0.15464 0.07748-0.25438 0.30377-0.30467 0.6913-0.0182 0.1402-0.0206 0.67823-4e-3 0.86191 0.0941 1.0366 0.36644 1.942 0.67942 2.2591 0.10487 0.10623 0.2045 0.14382 0.30099 0.11355zm-9.2803-0.5412c0.21069-0.03316 0.45309-0.10487 0.64222-0.19001 0.80064-0.36042 1.415-1.1358 1.5901-2.0068 0.0608-0.30271 0.0636-0.64003 7e-3 -0.92943-0.21863-1.1283-1.2604-1.7743-2.3965-1.4859-0.36124 0.09169-0.68774 0.25773-1.007 0.51211-0.1015 0.08088-0.32318 0.30271-0.40594 0.4062-0.35557 0.44472-0.55913 0.9198-0.62439 1.4573-0.0133 0.10909-0.0133 0.41783-8e-5 0.52429 0.0176 0.1408 0.0553 0.31228 0.0959 0.43503 0.10278 0.31075 0.25842 0.5633 0.47871 0.77676 0.29742 0.2882 0.6607 0.45786 1.0952 0.5115 0.0924 0.0114 0.42637 0.0043 0.5243-0.01103zm6.0691-0.1117c0.64796-0.09718 1.1612-0.48211 1.4326-1.0744 0.22497-0.49106 0.24815-1.1063 0.0633-1.682-0.16859-0.52526-0.50524-1.0151-0.93266-1.3571-0.37043-0.29638-0.78355-0.48085-1.2306-0.54947-0.11646-0.01788-0.37067-0.02432-0.48865-0.01239-0.37542 0.03798-0.72065 0.17708-1.0008 0.40325-0.55031 0.44426-0.80527 1.1878-0.67876 1.9794 0.0689 0.43071 0.25358 0.85815 0.53006 1.2264 0.46206 0.61543 1.1294 1.007 1.8368 1.0777 0.10277 0.01027 0.36679 0.0037 0.46869-0.01147zm2.4124-3.9118c0.0466-0.02115 0.0598-0.05076 0.0642-0.14344 7e-3 -0.15368-0.0185-0.46132-0.0549-0.6514-0.21033-1.1024-1.0155-1.8592-2.155-2.0256-0.31375-0.04581-0.73013-0.0411-1.0374 0.01175-0.0584 0.01006-0.0705 0.01502-0.0903 0.03684-0.0203 0.02246-0.0223 0.02935-0.0184 0.06286 0.0312 0.26358 0.78036 1.0498 1.7173 1.8023 0.62809 0.50442 1.1404 0.83153 1.414 0.90275 0.0873 0.02274 0.11735 0.02348 0.16034 0.0039zm-11.278-0.07712c0.54919-0.1805 1.9418-1.2771 2.7222-2.1436 0.2069-0.22974 0.34893-0.44522 0.3584-0.54374 7e-3 -0.07449-0.0152-0.08872-0.17365-0.11074-0.35604-0.04947-0.71039-0.04678-1.0399 0.0079-0.32157 0.05337-0.65691 0.17226-0.91886 0.32576-0.67742 0.39696-1.0933 1.0512-1.1982 1.8851-0.0158 0.12492-0.0262 0.37895-0.0197 0.47946 5e-3 0.06877 7e-3 0.07535 0.0291 0.0981 0.0454 0.04545 0.10642 0.04589 0.24074 0.0018zm5.8866-0.78947c0.46502-0.03249 0.84805-0.12388 1.1638-0.27765 0.42139-0.20524 0.64622-0.49754 0.62918-0.81797-6e-3 -0.10364-0.026-0.1783-0.078-0.28308-0.21968-0.44364-0.89315-0.87507-1.5917-1.0197-0.20033-0.04146-0.30711-0.05024-0.55622-0.04579-0.23011 0.0041-0.28394 0.0098-0.47037 0.04926-0.65203 0.1381-1.3319 0.58755-1.5358 1.0153-0.0454 0.09524-0.0582 0.15357-0.0527 0.23995 0.0284 0.44369 0.55062 0.86439 1.3002 1.0474 0.17089 0.04172 0.44633 0.08385 0.61962 0.09479 0.10283 0.0064 0.46601 0.0048 0.57196-0.0025zm-3.9203-2.518c0.87759-0.063 1.5079-0.33792 1.8409-0.80292 0.0699-0.09748 0.15564-0.267 0.19177-0.37876 0.0159-0.04891 0.0287-0.09386 0.0287-0.09988 0-0.01653-0.26452-0.27837-0.41308-0.4089-0.59415-0.52203-1.3958-1.0541-2.4944-1.6557-0.2136-0.11696-0.61189-0.32756-0.7616-0.40268-0.0452-0.02266-0.0803-0.04302-0.078-0.04523 7e-3 -0.0075 0.44597 0.14754 0.76024 0.26879 1.2563 0.48467 2.3449 1.089 3.2364 1.7964 0.0477 0.03781 0.0906 0.06869 0.0953 0.06862 5e-3 -7.5e-5 0.0391-0.01644 0.0762-0.03636 0.29647-0.15906 0.4892-0.38048 0.5686-0.65322 0.0719-0.24712 0.054-0.53978-0.0527-0.86088-0.1157-0.34811-0.33132-0.72216-0.6096-1.0575-0.0658-0.07924-0.21487-0.2358-0.22459-0.2358-4e-3 0-8e-3 0.0152-0.0114 0.03377-0.0107 0.06697-0.0604 0.20188-0.0855 0.23237l-0.0247 0.02996-0.0164-0.01976c-0.0371-0.04474-0.27601-0.31088-0.35997-0.40101-0.0814-0.08743-0.24701-0.24244-0.27682-0.25912-0.0103-0.0057-0.0111 0.0066-7e-3 0.09582 7e-3 0.12274-4e-3 0.16556-0.0523 0.21544-0.055 0.05661-0.0535 0.0569-0.11986-0.02413-0.11176-0.13633-0.27046-0.27582-0.43866-0.38557-0.10392-0.06783-0.10466-0.06803-0.0857-0.02357 0.0491 0.11464 0.0341 0.19844-0.0532 0.29809l-0.0302 0.03456-0.0911-0.07773c-0.11367-0.09708-0.22315-0.17886-0.31894-0.23826-0.0705-0.04369-0.24178-0.12932-0.3146-0.15724l-0.0341-0.01307 0.0533 0.0654c0.0716 0.08795 0.0933 0.13624 0.0888 0.19764-3e-3 0.03579-9e-3 0.05503-0.0271 0.08067-0.0131 0.01853-0.0289 0.03469-0.0354 0.03594-7e-3 0.0012-0.0509-0.0214-0.099-0.05033-0.15693-0.09462-0.28798-0.15423-0.45995-0.20921-0.0974-0.03113-0.3451-0.09193-0.35091-0.08613-2e-3 0.0018 0.0349 0.0368 0.0814 0.07797 0.0465 0.04118 0.0963 0.09032 0.11074 0.10921 0.0482 0.06306 0.0538 0.11691 0.0169 0.163l-0.0181 0.0226-0.13082-0.04398c-0.19932-0.06701-0.39682-0.11594-0.61269-0.1518-0.0409-0.0068-0.0867-0.01443-0.10197-0.01698l-0.0277-0.0046 0.0398 0.03407c0.0634 0.05442 0.12211 0.11968 0.13912 0.15459 0.0217 0.04436 0.0205 0.09726-3e-3 0.13136-0.0232 0.03417-0.0287 0.03393-0.16848-0.0073-0.13285-0.03921-0.25673-0.0678-0.37429-0.08637-0.12113-0.01914-0.35386-0.01875-0.45377 7.25e-4 -0.0405 0.0079-0.0751 0.0169-0.0771 0.02001-2e-3 0.0032 0.0481 0.0572 0.11126 0.12021 0.0632 0.063 0.11475 0.11867 0.11475 0.12371 0 0.0166-0.0551 0.01923-0.49252 0.0235-0.23812 0.0023-0.43771 0.0058-0.44354 0.0077-7e-3 0.0025-4e-3 0.01307 0.0149 0.03726 0.12965 0.17178 0.2471 0.38686 0.30044 0.55022 0.0467 0.14297 0.0468 0.14324 0.0163 0.15386-0.0327 0.0114-0.15743 0.01135-0.27828-9.3e-5 -0.0521-0.0049-0.0968-0.0071-0.0991-0.0047-6e-3 0.0058 0.024 0.06292 0.0628 0.12099 0.0776 0.11586 0.16982 0.20907 0.35509 0.3589 0.0653 0.05286 0.13483 0.12339 0.15064 0.15294 9e-3 0.0168 8e-3 0.02053-8e-3 0.03359-0.0105 0.0081-0.0434 0.02231-0.0735 0.03163-0.046 0.01424-0.0669 0.01623-0.13107 0.01247-0.042-0.0025-0.10891-0.01307-0.14867-0.02355l-0.0722-0.01906 0.0246 0.04293c0.072 0.12573 0.17879 0.24166 0.44006 0.47817 0.093 0.08423 0.16786 0.15721 0.16624 0.16219-5e-3 0.01527-0.0546 0.03518-0.11299 0.04529-0.0356 0.0062-0.0927 0.0079-0.15887 0.0049l-0.10328-0.0046 0.0904 0.08748c0.16103 0.15592 0.36357 0.3159 0.5586 0.44123 0.0904 0.05807 0.0936 0.06115 0.0808 0.07538-0.023 0.02538-0.0889 0.03887-0.23552 0.04815l-0.14132 9e-3 0.0411 0.03638c0.14338 0.1269 0.30445 0.22662 0.64218 0.39756 0.13135 0.06649 0.23881 0.12398 0.23881 0.12776 0 0.0093-0.0622 0.04511-0.11323 0.06521-0.0325 0.01274-0.0674 0.01744-0.15685 0.02107l-0.11518 0.0047 0.0555 0.03683c0.0685 0.04537 0.19284 0.108 0.29581 0.14901 0.0733 0.0292 0.35401 0.12176 0.53232 0.17556 0.0448 0.01351 0.0815 0.02748 0.0815 0.03104 0 0.01394-0.0555 0.07555-0.0872 0.09689-0.0369 0.02477-0.10065 0.0506-0.14579 0.05907-0.016 0.0031-0.0291 0.0083-0.0291 0.01179 0 0.0035 0.0258 0.01694 0.0576 0.02993 0.16275 0.06673 0.3029 0.09339 0.61366 0.11672 0.25154 0.01889 0.34138 0.03353 0.38035 0.06204 0.0142 0.01037 0.0141 0.01179-2e-3 0.0437-0.0328 0.06429-0.0956 0.12035-0.19442 0.17364l-0.0487 0.02627 0.21052 1.97e-4c0.11578 7.5e-5 0.26056-0.0035 0.32172-0.0078zm7.5561-0.03366c-0.0809-0.04833-0.14728-0.11014-0.16829-0.15672-0.0179-0.03959-0.012-0.0477 0.0477-0.06631 0.0551-0.01721 0.13177-0.02688 0.32569-0.04113 0.32209-0.02364 0.50905-0.06114 0.64314-0.12897l0.0395-0.01993-0.0564-0.01435c-0.0707-0.01794-0.11392-0.0398-0.15615-0.07887-0.0297-0.02747-0.0676-0.07958-0.0578-0.07958 0.0149 0 0.46681-0.14406 0.55304-0.17631 0.17234-0.06446 0.3194-0.13798 0.38533-0.19262l0.0238-0.01975-0.0979-2.82e-4c-0.0824-2.81e-4 -0.1071-0.0035-0.15594-0.01977-0.0536-0.01798-0.13143-0.05824-0.13143-0.06795 0-0.0023 0.0634-0.03568 0.14099-0.07423 0.39735-0.19754 0.59904-0.31995 0.74472-0.45193l0.0398-0.03596-0.11118-0.0054c-0.0612-0.0031-0.13263-0.0091-0.15885-0.01346-0.0605-0.01016-0.11518-0.03393-0.11518-0.05003 0-0.0068 3e-3 -0.01235 7e-3 -0.01235 0.0114 0 0.22263-0.14288 0.3192-0.21579 0.11517-0.08697 0.25435-0.20761 0.34102-0.29557l0.0672-0.06818-0.10291 0.0046c-0.11347 5e-3 -0.18157-0.0031-0.23914-0.02851l-0.0374-0.01655 0.0313-0.03241c0.0172-0.01783 0.10272-0.0976 0.1901-0.17726 0.22898-0.20876 0.32749-0.31774 0.39239-0.43415l0.0248-0.04445-0.0696 0.01975c-0.056 0.01593-0.0888 0.01992-0.16887 0.02062-0.0953 8.36e-4 -0.10123-1.03e-4 -0.14697-0.02297-0.0261-0.0131-0.0484-0.0292-0.0495-0.03575-4e-3 -0.02515 0.0583-0.09098 0.19041-0.20106 0.19487-0.16239 0.28747-0.26469 0.36026-0.39794l0.0299-0.05485-0.051 0.0051c-0.10284 0.01045-0.29775 0.01495-0.32512 0.0075-0.0254-0.0069-0.0277-0.01006-0.027-0.03559 9.2e-4 -0.0465 0.0568-0.20212 0.11416-0.32018 0.0481-0.09886 0.12749-0.22722 0.2177-0.35152l0.0302-0.0417-0.35226-1.88e-4c-0.36694-1.88e-4 -0.58273-0.0087-0.59738-0.02328-7e-3 -0.0062 0.0251-0.0423 0.10995-0.1273 0.0651-0.0653 0.11688-0.12038 0.11484-0.12241-2e-3 -0.0021-0.0376-0.01007-0.079-0.01788-0.11239-0.02117-0.34331-0.01931-0.47951 0.0038-0.1136 0.01932-0.24685 0.05138-0.38899 0.0936-0.0914 0.02713-0.0945 0.02752-0.11004 0.01349-0.0232-0.02096-0.0382-0.05364-0.0382-0.08308 0-0.04662 0.0313-0.09527 0.11327-0.17649 0.067-0.06637 0.0757-0.07758 0.0564-0.07378-0.0124 0.0025-0.0674 0.01192-0.12197 0.02101-0.2044 0.03402-0.40332 0.0842-0.60124 0.15167l-0.11755 0.04006-0.0219-0.02452c-0.0175-0.01953-0.0219-0.03227-0.0219-0.06256 0-0.05376 0.0269-0.09204 0.13758-0.19556 0.051-0.04768 0.0917-0.0877 0.0904-0.08893-5e-3 -0.0046-0.21455 0.04472-0.30688 0.07206-0.17574 0.05205-0.34415 0.12715-0.50692 0.22603-0.0439 0.02669-0.0831 0.04852-0.0871 0.04852-0.0128 0-0.0487-0.04278-0.0615-0.07323-7e-3 -0.01624-0.0123-0.04305-0.0123-0.05958 0-0.04179 0.0379-0.11757 0.0888-0.17785 0.0602-0.07113 0.0603-0.07199 5e-3 -0.04976-0.19206 0.07677-0.38398 0.19588-0.58073 0.36039-0.0692 0.05784-0.12867 0.10206-0.13221 0.09828-0.029-0.03102-0.0877-0.11841-0.0957-0.14239-0.0136-0.04131-6e-3 -0.11692 0.0182-0.17573l0.0201-0.04908-0.0528 0.0323c-0.19289 0.11792-0.39348 0.29173-0.50564 0.4381-0.0218 0.02851-0.0418 0.05205-0.0445 0.0523-3e-3 2.82e-4 -0.0211-0.01387-0.041-0.03141-0.0686-0.06037-0.0831-0.12157-0.0669-0.28103l7e-3 -0.06266-0.0421 0.0347c-0.0899 0.07398-0.26244 0.25016-0.43705 0.44611-0.10026 0.1125-0.18713 0.20455-0.19303 0.20455-0.027 0-0.0765-0.11203-0.10348-0.23414l-0.014-0.06334-0.0757 0.07923c-0.43171 0.45221-0.74822 1.0293-0.83641 1.525-0.0244 0.13698-0.0245 0.34874-3.7e-4 0.46224 0.0188 0.08831 0.0553 0.19826 0.0864 0.26065 0.0641 0.12846 0.18555 0.27047 0.3162 0.36997 0.0727 0.05535 0.24466 0.15819 0.26466 0.15826 6e-3 2.4e-5 0.0595-0.03869 0.11916-0.08604 1.0041-0.79671 2.293-1.4737 3.7856-1.9885 0.10002-0.0345 0.18343-0.06113 0.18537-0.05919 2e-3 2e-3 -0.0434 0.02795-0.1008 0.05779-0.80877 0.42089-1.281 0.68554-1.7956 1.0062-0.59619 0.37154-1.0479 0.69913-1.4418 1.0456-0.10912 0.09597-0.35202 0.33179-0.38629 0.37502l-0.0231 0.02905 0.0278 0.08507c0.17915 0.54692 0.63527 0.91456 1.3546 1.0919 0.16041 0.03954 0.37071 0.07495 0.54007 0.09097 0.17925 0.01694 0.18819 0.01733 0.44479 0.01899l0.22634 0.0015-0.0699-0.0417z" fill="#e3dedb" stroke-width=".0079438"/> <path transform="translate(-28.768 -12.237)" d="m166.81 29.104v2.54h-11.933v-5.1065h11.933z" fill="none" stroke="#e3dedb" stroke-linejoin="round" stroke-width=".5"/> <path transform="translate(-28.768 -12.237)" d="m166.81 35.136v2.54h-11.933v-5.1065h11.933z" fill="none" stroke="#e3dedb" stroke-linejoin="round" stroke-width=".5"/> <path transform="translate(-28.768 -12.237)" d="m74.5 33.073h-4.6567v-4.8683h9.3133v4.8683z" fill="none" stroke="#e3dedb" stroke-linejoin="round" stroke-width=".5"/> <path transform="translate(-28.768 -12.237)" d="m108.53 25.453h-58.5v-11.218h116.8v11.218z" fill="none" stroke="#e3dedb" stroke-linejoin="round" stroke-width=".5"/> <path transform="translate(-28.768 -12.237)" d="m87.57 65.775v-26.247l1.9844-1.7992h26.167v28.046z" fill="#1a1a1a" fill-rule="evenodd" stroke="#1a1a1a" stroke-linejoin="round" stroke-width=".55562"/> <rect transform="translate(-28.768 -12.237)" x="155.92" y="52.661" width="7.2831" height="4.8777" fill="#1a1a1a" stroke="#1a1a1a" stroke-width=".147" style="paint-order:stroke fill markers"/> <rect transform="translate(-28.768 -12.237)" x="82.294" y="76.956" width="7.1235" height="3.8837" fill="#1a1a1a" stroke="#1a1a1a" stroke-width=".22572" style="paint-order:stroke fill markers"/> </g>
  </g>
  <text x="470.0" y="733" fill="#111" font-family="Arial,sans-serif" font-size="14" font-weight="700">Raspberry Pi Zero W</text>

  <text x="1140" y="80" fill="#111" font-family="Arial,sans-serif" font-size="16" font-weight="700">Датчик и реле</text>
  <g id="bme280" transform="translate(1140,90) scale(1.15)">
<!-- Стили для текста и деталей -->
  <style>
    .pin-label { font-family: 'Courier New', Courier, monospace; font-size: 11px; fill: #FFFFFF; font-weight: bold; text-anchor: middle; }
    .board-text { font-family: 'Arial', sans-serif; font-size: 10px; fill: #D0A0FF; font-weight: bold; text-anchor: middle; }
    .sensor-text { font-family: 'Arial', sans-serif; font-size: 7px; fill: #666666; text-anchor: middle; }
  </style>

  <!-- Фиолетовая печатная плата (PCB) -->
  <rect x="10" y="10" width="140" height="200" rx="15" fill="#5E239D" stroke="#421473" stroke-width="3"/>

  <!-- Монтажные отверстия верхней части -->
  <circle cx="30" cy="32" r="10" fill="none" stroke="#DAA520" stroke-width="3"/>
  <circle cx="30" cy="32" r="7" fill="#5E239D"/>
  
  <circle cx="130" cy="32" r="10" fill="none" stroke="#DAA520" stroke-width="3"/>
  <circle cx="130" cy="32" r="7" fill="#5E239D"/>

  <!-- Металлический датчик BME280 (серебристый корпус с вентиляционным отверстием) -->
  <rect x="55" y="60" width="50" height="50" rx="6" fill="#D3D3D3" stroke="#A9A9A9" stroke-width="2"/>
  <rect x="59" y="64" width="42" height="42" rx="4" fill="#E6E6E6"/>
  <!-- Маленькое вентиляционное отверстие на чипе -->
  <circle cx="91" cy="73" r="3.5" fill="#333333"/>
  <!-- Текст маркировки на металлической крышке -->
  <text x="76" y="88" class="sensor-text">BME</text>
  <text x="76" y="98" class="sensor-text">280</text>

  <!-- Элементы обвязки (резисторы/стабилизатор) -->
  <rect x="35" y="125" width="16" height="10" fill="#333333" stroke="#555555" stroke-width="1"/>
  <rect x="35" y="125" width="3" height="10" fill="#CCCCCC"/>
  <rect x="48" y="125" width="3" height="10" fill="#CCCCCC"/>
  
  <rect x="65" y="125" width="16" height="10" fill="#333333" stroke="#555555" stroke-width="1"/>
  <rect x="65" y="125" width="3" height="10" fill="#CCCCCC"/>
  <rect x="78" y="125" width="3" height="10" fill="#CCCCCC"/>

  <rect x="95" y="123" width="25" height="14" fill="#222222"/>
  <rect x="100" y="137" width="4" height="5" fill="#AA8800"/>
  <rect x="106" y="137" width="4" height="5" fill="#AA8800"/>
  <rect x="112" y="137" width="4" height="5" fill="#AA8800"/>

  <!-- Текстовые подписи на плате -->
  <text x="80" y="28" class="board-text">BME280</text>
  <text x="80" y="42" class="board-text">I2C Module</text>

  <!-- Контакты для подключения (Пины) -->
  <!-- 1. VCC -->
  <circle cx="28" cy="185" r="9" fill="none" stroke="#DAA520" stroke-width="2.5"/>
  <circle cx="28" cy="185" r="5" fill="#111111"/>
  <text x="28" y="165" class="pin-label">VCC</text>

  <!-- 2. GND -->
  <circle cx="63" cy="185" r="9" fill="none" stroke="#DAA520" stroke-width="2.5"/>
  <circle cx="63" cy="185" r="5" fill="#111111"/>
  <text x="63" y="165" class="pin-label">GND</text>

  <!-- 3. SCL -->
  <circle cx="98" cy="185" r="9" fill="none" stroke="#DAA520" stroke-width="2.5"/>
  <circle cx="98" cy="185" r="5" fill="#111111"/>
  <text x="98" y="165" class="pin-label">SCL</text>

  <!-- 4. SDA -->
  <circle cx="133" cy="185" r="9" fill="none" stroke="#DAA520" stroke-width="2.5"/>
  <circle cx="133" cy="185" r="5" fill="#111111"/>
  <text x="133" y="165" class="pin-label">SDA</text>
  </g>

  <rect x="1140" y="410" width="250" height="170" rx="8" fill="#1f2937" stroke="#111" stroke-width="3"/>
  <rect x="1158" y="426" width="86" height="48" rx="6" fill="#2563eb"/>
  <text x="1170" y="446" fill="#fff" font-family="Arial,sans-serif" font-size="12" font-weight="700">SRD-05</text>
  <text x="1172" y="464" fill="#dbeafe" font-family="Arial,sans-serif" font-size="11">реле 5V</text>
  <rect x="1126" y="492" width="16" height="14" fill="#e2e8f0" stroke="#334155"/>
  <rect x="1126" y="520" width="16" height="14" fill="#e2e8f0" stroke="#334155"/>
  <rect x="1126" y="548" width="16" height="14" fill="#e2e8f0" stroke="#334155"/>
  <text x="1158" y="504" fill="#fff" font-family="ui-monospace,Consolas,monospace" font-size="13">VCC</text>
  <text x="1158" y="532" fill="#fff" font-family="ui-monospace,Consolas,monospace" font-size="13">GND</text>
  <text x="1158" y="560" fill="#fff" font-family="ui-monospace,Consolas,monospace" font-size="13">IN</text>
  <rect x="1270" y="492" width="100" height="70" rx="4" fill="#334155"/>
  <text x="1286" y="516" fill="#fde68a" font-family="Arial,sans-serif" font-size="11">COM</text>
  <text x="1286" y="536" fill="#fde68a" font-family="Arial,sans-serif" font-size="11">NO</text>
  <text x="1286" y="556" fill="#94a3b8" font-family="Arial,sans-serif" font-size="11">пусто</text>

  <path d="M200 220 V232 H16 V327" fill="none" stroke="#7c3aed" stroke-width="5" stroke-linecap="round" stroke-linejoin="round"/>
  <text x="210" y="232" fill="#6d28d9" font-family="Arial,sans-serif" font-size="13" font-weight="700">25V~</text>

  <path d="M390.0 110.0 H567.1 V463.3 L539.1 511.8" fill="none" stroke="#ef4444" stroke-width="4" stroke-linecap="round" stroke-linejoin="round"/><path d="M390.0 130.0 H600.9 V463.3 L572.9 511.8" fill="none" stroke="#111111" stroke-width="4" stroke-linecap="round" stroke-linejoin="round"/><path d="M1132.0 90.0 H511.1 V480.2 L539.1 528.7" fill="none" stroke="#3b82f6" stroke-width="4" stroke-linecap="round" stroke-linejoin="round"/><path d="M1253.0 150.0 H528.0 V480.2 L556.0 528.7" fill="none" stroke="#22c55e" stroke-width="4" stroke-linecap="round" stroke-linejoin="round"/><path d="M1213.0 170.0 H544.9 V480.2 L572.9 528.7" fill="none" stroke="#16a34a" stroke-width="4" stroke-linecap="round" stroke-linejoin="round"/><path d="M1172.0 190.0 H578.7 V480.2 L606.7 528.7" fill="none" stroke="#111111" stroke-width="3" stroke-linecap="round" stroke-linejoin="round" stroke-dasharray="6 4"/><path d="M1086.0 210.0 H567.1 V463.3 L539.1 511.8" fill="none" stroke="#ef4444" stroke-width="3" stroke-linecap="round" stroke-linejoin="round" stroke-dasharray="7 4"/><path d="M1086.0 230.0 H600.9 V463.3 L572.9 511.8" fill="none" stroke="#111111" stroke-width="3" stroke-linecap="round" stroke-linejoin="round" stroke-dasharray="6 4"/><path d="M1086.0 250.0 H595.6 V480.2 L623.6 528.7" fill="none" stroke="#f59e0b" stroke-width="4" stroke-linecap="round" stroke-linejoin="round"/>

  <rect x="30" y="780" width="1540" height="310" rx="10" fill="#f8fafc" stroke="#cbd5e1"/>
  <text x="50" y="812" fill="#111" font-family="Arial,sans-serif" font-size="16" font-weight="700">Питание и гребёнка</text>
  <g font-family="Arial,sans-serif" font-size="15" fill="#111">
    <text x="50" y="848">Вариант A: 24–25 В ~ → AC-DC 5 В → pin 2 / pin 6</text>
    <text x="50" y="874">Вариант B: USB → TP4056 → аккумулятор 1S → boost 5 В → pin 2 / pin 6</text>
    <text x="50" y="900">Внешний ряд гребёнки: pin 2 — 5 В, pin 6 — GND</text>
    <text x="50" y="926">Внутренний ряд: pin 1 — 3.3 В, pin 3 SDA, pin 5 SCL, pin 9 GND, pin 11 GPIO17</text>
    <text x="50" y="960">Последний участок провода — 30° к контакту. COM / NO свободно.</text>
    <text x="50" y="986">25 В ~ не на TP4056, датчик и GPIO. AC-DC и TP4056 не включать параллельно на pin 2.</text>
  </g>
</svg>
